<svg width="21" height="22" viewBox="0 0 21 22" fill="none" xmlns="http://www.w3.org/2000/svg">
<path d="M7.71094 6.03906C8.47656 5.27344 9.40625 4.89062 10.5 4.89062C11.5938 4.89062 12.5234 5.27344 13.2891 6.03906C14.0547 6.80469 14.4375 7.73438 14.4375 8.82812C14.4375 9.92188 14.0547 10.8516 13.2891 11.6172C12.5234 12.3828 11.5938 12.7656 10.5 12.7656C9.40625 12.7656 8.47656 12.3828 7.71094 11.6172C6.94531 10.8516 6.5625 9.92188 6.5625 8.82812C6.5625 7.73438 6.94531 6.80469 7.71094 6.03906ZM9.10547 10.2227C9.48828 10.6055 9.95312 10.7969 10.5 10.7969C11.0469 10.7969 11.5117 10.6055 11.8945 10.2227C12.2773 9.83984 12.4688 9.375 12.4688 8.82812C12.4688 8.28125 12.2773 7.81641 11.8945 7.43359C11.5117 7.05078 11.0469 6.85938 10.5 6.85938C9.95312 6.85938 9.48828 7.05078 9.10547 7.43359C8.72266 7.81641 8.53125 8.28125 8.53125 8.82812C8.53125 9.375 8.72266 9.83984 9.10547 10.2227ZM3.28125 3.94727C5.27734 1.95117 7.68359 0.953125 10.5 0.953125C13.3164 0.953125 15.709 1.95117 17.6777 3.94727C19.6738 5.91602 20.6719 8.30859 20.6719 11.125C20.6719 13.9414 19.6738 16.3477 17.6777 18.3438C15.709 20.3125 13.3164 21.2969 10.5 21.2969C7.68359 21.2969 5.27734 20.3125 3.28125 18.3438C1.3125 16.3477 0.328125 13.9414 0.328125 11.125C0.328125 8.30859 1.3125 5.91602 3.28125 3.94727ZM5.16797 17.3594C6.69922 18.6719 8.47656 19.3281 10.5 19.3281C12.5234 19.3281 14.3008 18.6719 15.832 17.3594C15.1758 16.3203 14.2188 15.7734 12.9609 15.7188C12.1406 15.9922 11.3203 16.1289 10.5 16.1289C9.70703 16.1289 8.88672 15.9922 8.03906 15.7188C6.80859 15.7461 5.85156 16.293 5.16797 17.3594ZM17.1855 15.8828C18.1973 14.4609 18.7031 12.875 18.7031 11.125C18.7031 8.85547 17.8965 6.92773 16.2832 5.3418C14.6973 3.72852 12.7695 2.92188 10.5 2.92188C8.23047 2.92188 6.28906 3.72852 4.67578 5.3418C3.08984 6.92773 2.29688 8.85547 2.29688 11.125C2.29688 12.875 2.80273 14.4609 3.81445 15.8828C4.93555 14.4609 6.37109 13.75 8.12109 13.75C8.20312 13.75 8.49023 13.8184 8.98242 13.9551C9.50195 14.0918 10.0078 14.1602 10.5 14.1602C10.9922 14.1602 11.4844 14.0918 11.9766 13.9551C12.4961 13.8184 12.7969 13.75 12.8789 13.75C14.6289 13.75 16.0645 14.4609 17.1855 15.8828Z" fill="white"/>
</svg>
