<?xml version="1.0" encoding="UTF-8"?>
<svg xmlns="http://www.w3.org/2000/svg" xmlns:xlink="http://www.w3.org/1999/xlink" width="12pt" height="12pt" viewBox="0 0 12 12" version="1.1">
<defs>
<clipPath id="clip1">
  <path d="M 0.5 0.5 L 11.5 0.5 L 11.5 11.5 L 0.5 11.5 Z M 0.5 0.5 "/>
</clipPath>
<clipPath id="clip2">
  <path d="M 0.5 7 L 11.5 7 L 11.5 11.5 L 0.5 11.5 Z M 0.5 7 "/>
</clipPath>
</defs>
<g id="surface1">
<g clip-path="url(#clip1)" clip-rule="nonzero">
<path style=" stroke:none;fill-rule:nonzero;fill:rgb(66.27451%,66.27451%,66.27451%);fill-opacity:1;" d="M 1.1875 3.078125 C 1.09375 3.078125 1.015625 3.15625 1.015625 3.25 L 1.359375 3.25 C 1.359375 3.15625 1.28125 3.078125 1.1875 3.078125 Z M 0.84375 4.96875 L 3.59375 4.96875 L 3.59375 3.59375 L 0.84375 3.59375 C 0.652344 3.59375 0.5 3.746094 0.5 3.9375 L 0.5 4.625 C 0.5 4.816406 0.652344 4.96875 0.84375 4.96875 Z M 10.726562 3.078125 C 10.632812 3.078125 10.554688 3.15625 10.554688 3.25 L 10.898438 3.25 C 10.898438 3.15625 10.820312 3.078125 10.726562 3.078125 Z M 11.15625 3.59375 L 8.40625 3.59375 L 8.40625 4.96875 L 11.15625 4.96875 C 11.347656 4.96875 11.5 4.816406 11.5 4.625 L 11.5 3.9375 C 11.5 3.746094 11.347656 3.59375 11.15625 3.59375 Z M 10.726562 7.546875 C 10.664062 7.546875 10.609375 7.578125 10.578125 7.632812 L 10.875 7.632812 C 10.84375 7.578125 10.789062 7.546875 10.726562 7.546875 Z M 11.15625 7.976562 L 8.835938 7.976562 L 8.835938 9.351562 L 11.15625 9.351562 C 11.347656 9.351562 11.5 9.199219 11.5 9.007812 L 11.5 8.320312 C 11.5 8.128906 11.347656 7.976562 11.15625 7.976562 Z M 1.015625 5.484375 L 1.359375 5.484375 C 1.359375 5.390625 1.28125 5.3125 1.1875 5.3125 C 1.09375 5.3125 1.015625 5.390625 1.015625 5.484375 Z M 3.59375 5.828125 L 0.84375 5.828125 C 0.652344 5.828125 0.5 5.980469 0.5 6.171875 L 0.5 6.859375 C 0.5 7.050781 0.652344 7.203125 0.84375 7.203125 L 3.410156 7.203125 C 3.464844 7.15625 3.527344 7.121094 3.59375 7.09375 Z M 10.726562 5.3125 C 10.632812 5.3125 10.554688 5.390625 10.554688 5.484375 L 10.898438 5.484375 C 10.898438 5.390625 10.820312 5.3125 10.726562 5.3125 Z M 11.15625 5.828125 L 8.40625 5.828125 L 8.40625 7.09375 C 8.472656 7.121094 8.535156 7.15625 8.589844 7.203125 L 11.15625 7.203125 C 11.347656 7.203125 11.5 7.050781 11.5 6.859375 L 11.5 6.171875 C 11.5 5.980469 11.347656 5.828125 11.15625 5.828125 Z M 4.796875 6.859375 L 4.796875 6.515625 C 4.796875 6.421875 4.875 6.34375 4.96875 6.34375 C 5.0625 6.34375 5.140625 6.421875 5.140625 6.515625 L 5.140625 6.859375 C 5.140625 6.953125 5.0625 7.03125 4.96875 7.03125 L 6 7.03125 C 5.90625 7.03125 5.828125 6.953125 5.828125 6.859375 L 5.828125 6.515625 C 5.828125 6.421875 5.90625 6.34375 6 6.34375 C 6.09375 6.34375 6.171875 6.421875 6.171875 6.515625 L 6.171875 6.859375 C 6.171875 6.953125 6.09375 7.03125 6 7.03125 L 7.03125 7.03125 C 6.9375 7.03125 6.859375 6.953125 6.859375 6.859375 L 6.859375 6.515625 C 6.859375 6.421875 6.9375 6.34375 7.03125 6.34375 C 7.125 6.34375 7.203125 6.421875 7.203125 6.515625 L 7.203125 6.859375 C 7.203125 6.953125 7.125 7.03125 7.03125 7.03125 L 8.0625 7.03125 L 8.0625 0.84375 C 8.0625 0.652344 7.910156 0.5 7.71875 0.5 L 4.28125 0.5 C 4.089844 0.5 3.9375 0.652344 3.9375 0.84375 L 3.9375 7.03125 L 4.96875 7.03125 C 4.875 7.03125 4.796875 6.953125 4.796875 6.859375 Z M 6.859375 1.359375 C 6.859375 1.265625 6.9375 1.1875 7.03125 1.1875 C 7.125 1.1875 7.203125 1.265625 7.203125 1.359375 L 7.203125 1.703125 C 7.203125 1.796875 7.125 1.875 7.03125 1.875 C 6.9375 1.875 6.859375 1.796875 6.859375 1.703125 Z M 6.859375 2.390625 C 6.859375 2.296875 6.9375 2.21875 7.03125 2.21875 C 7.125 2.21875 7.203125 2.296875 7.203125 2.390625 L 7.203125 2.734375 C 7.203125 2.828125 7.125 2.90625 7.03125 2.90625 C 6.9375 2.90625 6.859375 2.828125 6.859375 2.734375 Z M 6.859375 3.421875 C 6.859375 3.328125 6.9375 3.25 7.03125 3.25 C 7.125 3.25 7.203125 3.328125 7.203125 3.421875 L 7.203125 3.765625 C 7.203125 3.859375 7.125 3.9375 7.03125 3.9375 C 6.9375 3.9375 6.859375 3.859375 6.859375 3.765625 Z M 6.859375 4.453125 C 6.859375 4.359375 6.9375 4.28125 7.03125 4.28125 C 7.125 4.28125 7.203125 4.359375 7.203125 4.453125 L 7.203125 4.796875 C 7.203125 4.890625 7.125 4.96875 7.03125 4.96875 C 6.9375 4.96875 6.859375 4.890625 6.859375 4.796875 Z M 6.859375 5.484375 C 6.859375 5.390625 6.9375 5.3125 7.03125 5.3125 C 7.125 5.3125 7.203125 5.390625 7.203125 5.484375 L 7.203125 5.828125 C 7.203125 5.921875 7.125 6 7.03125 6 C 6.9375 6 6.859375 5.921875 6.859375 5.828125 Z M 5.828125 1.359375 C 5.828125 1.265625 5.90625 1.1875 6 1.1875 C 6.09375 1.1875 6.171875 1.265625 6.171875 1.359375 L 6.171875 1.703125 C 6.171875 1.796875 6.09375 1.875 6 1.875 C 5.90625 1.875 5.828125 1.796875 5.828125 1.703125 Z M 5.828125 2.390625 C 5.828125 2.296875 5.90625 2.21875 6 2.21875 C 6.09375 2.21875 6.171875 2.296875 6.171875 2.390625 L 6.171875 2.734375 C 6.171875 2.828125 6.09375 2.90625 6 2.90625 C 5.90625 2.90625 5.828125 2.828125 5.828125 2.734375 Z M 5.828125 3.421875 C 5.828125 3.328125 5.90625 3.25 6 3.25 C 6.09375 3.25 6.171875 3.328125 6.171875 3.421875 L 6.171875 3.765625 C 6.171875 3.859375 6.09375 3.9375 6 3.9375 C 5.90625 3.9375 5.828125 3.859375 5.828125 3.765625 Z M 5.828125 4.453125 C 5.828125 4.359375 5.90625 4.28125 6 4.28125 C 6.09375 4.28125 6.171875 4.359375 6.171875 4.453125 L 6.171875 4.796875 C 6.171875 4.890625 6.09375 4.96875 6 4.96875 C 5.90625 4.96875 5.828125 4.890625 5.828125 4.796875 Z M 5.828125 5.484375 C 5.828125 5.390625 5.90625 5.3125 6 5.3125 C 6.09375 5.3125 6.171875 5.390625 6.171875 5.484375 L 6.171875 5.828125 C 6.171875 5.921875 6.09375 6 6 6 C 5.90625 6 5.828125 5.921875 5.828125 5.828125 Z M 4.796875 1.359375 C 4.796875 1.265625 4.875 1.1875 4.96875 1.1875 C 5.0625 1.1875 5.140625 1.265625 5.140625 1.359375 L 5.140625 1.703125 C 5.140625 1.796875 5.0625 1.875 4.96875 1.875 C 4.875 1.875 4.796875 1.796875 4.796875 1.703125 Z M 4.796875 2.390625 C 4.796875 2.296875 4.875 2.21875 4.96875 2.21875 C 5.0625 2.21875 5.140625 2.296875 5.140625 2.390625 L 5.140625 2.734375 C 5.140625 2.828125 5.0625 2.90625 4.96875 2.90625 C 4.875 2.90625 4.796875 2.828125 4.796875 2.734375 Z M 4.796875 3.421875 C 4.796875 3.328125 4.875 3.25 4.96875 3.25 C 5.0625 3.25 5.140625 3.328125 5.140625 3.421875 L 5.140625 3.765625 C 5.140625 3.859375 5.0625 3.9375 4.96875 3.9375 C 4.875 3.9375 4.796875 3.859375 4.796875 3.765625 Z M 4.796875 4.453125 C 4.796875 4.359375 4.875 4.28125 4.96875 4.28125 C 5.0625 4.28125 5.140625 4.359375 5.140625 4.453125 L 5.140625 4.796875 C 5.140625 4.890625 5.0625 4.96875 4.96875 4.96875 C 4.875 4.96875 4.796875 4.890625 4.796875 4.796875 Z M 4.796875 5.484375 C 4.796875 5.390625 4.875 5.3125 4.96875 5.3125 C 5.0625 5.3125 5.140625 5.390625 5.140625 5.484375 L 5.140625 5.828125 C 5.140625 5.921875 5.0625 6 4.96875 6 C 4.875 6 4.796875 5.921875 4.796875 5.828125 Z M 8.109375 7.375 L 3.890625 7.375 C 3.691406 7.363281 3.519531 7.519531 3.507812 7.71875 L 3.507812 11.328125 C 3.507812 11.421875 3.585938 11.5 3.679688 11.5 L 8.320312 11.5 C 8.414062 11.5 8.492188 11.421875 8.492188 11.328125 L 8.492188 7.71875 C 8.480469 7.519531 8.308594 7.363281 8.109375 7.375 Z M 8.148438 11.15625 L 3.851562 11.15625 L 3.851562 7.730469 L 8.109375 7.71875 C 8.121094 7.71875 8.136719 7.722656 8.148438 7.730469 Z M 8.148438 11.15625 "/>
</g>
<g clip-path="url(#clip2)" clip-rule="nonzero">
<path style=" stroke:none;fill-rule:nonzero;fill:rgb(66.27451%,66.27451%,66.27451%);fill-opacity:1;" d="M 6 8.234375 C 5.90625 8.234375 5.828125 8.3125 5.828125 8.40625 L 5.828125 10.46875 C 5.828125 10.5625 5.90625 10.640625 6 10.640625 C 6.09375 10.640625 6.171875 10.5625 6.171875 10.46875 L 6.171875 8.40625 C 6.171875 8.3125 6.09375 8.234375 6 8.234375 Z M 5.3125 9.09375 C 5.21875 9.09375 5.140625 9.171875 5.140625 9.265625 L 5.140625 9.609375 C 5.140625 9.703125 5.21875 9.78125 5.3125 9.78125 C 5.40625 9.78125 5.484375 9.703125 5.484375 9.609375 L 5.484375 9.265625 C 5.484375 9.171875 5.40625 9.09375 5.3125 9.09375 Z M 6.6875 9.09375 C 6.59375 9.09375 6.515625 9.171875 6.515625 9.265625 L 6.515625 9.609375 C 6.515625 9.703125 6.59375 9.78125 6.6875 9.78125 C 6.78125 9.78125 6.859375 9.703125 6.859375 9.609375 L 6.859375 9.265625 C 6.859375 9.171875 6.78125 9.09375 6.6875 9.09375 Z M 1.1875 7.546875 C 1.125 7.546875 1.070312 7.578125 1.039062 7.632812 L 1.335938 7.632812 C 1.304688 7.578125 1.25 7.546875 1.1875 7.546875 Z M 0.84375 9.351562 L 3.164062 9.351562 L 3.164062 7.976562 L 0.84375 7.976562 C 0.652344 7.976562 0.5 8.128906 0.5 8.320312 L 0.5 9.007812 C 0.5 9.199219 0.652344 9.351562 0.84375 9.351562 Z M 1.039062 9.78125 L 1.335938 9.78125 C 1.304688 9.726562 1.25 9.695312 1.1875 9.695312 C 1.125 9.695312 1.070312 9.726562 1.039062 9.78125 Z M 3.171875 11.414062 C 3.167969 11.382812 3.164062 11.355469 3.164062 11.328125 L 3.164062 10.125 L 0.84375 10.125 C 0.652344 10.125 0.5 10.277344 0.5 10.46875 L 0.5 11.15625 C 0.5 11.347656 0.652344 11.5 0.84375 11.5 L 3.195312 11.5 C 3.183594 11.472656 3.175781 11.445312 3.171875 11.417969 C 3.171875 11.417969 3.171875 11.414062 3.171875 11.414062 Z M 10.726562 9.695312 C 10.664062 9.695312 10.609375 9.726562 10.578125 9.78125 L 10.875 9.78125 C 10.84375 9.726562 10.789062 9.695312 10.726562 9.695312 Z M 11.15625 10.125 L 8.835938 10.125 L 8.835938 11.328125 C 8.835938 11.355469 8.832031 11.382812 8.828125 11.414062 C 8.828125 11.414062 8.828125 11.417969 8.828125 11.417969 C 8.824219 11.445312 8.816406 11.472656 8.804688 11.5 L 11.15625 11.5 C 11.347656 11.5 11.5 11.347656 11.5 11.15625 L 11.5 10.46875 C 11.5 10.277344 11.347656 10.125 11.15625 10.125 Z M 11.15625 10.125 "/>
</g>
</g>
</svg>
