<svg width="12" height="14" viewBox="0 0 12 14" fill="none" xmlns="http://www.w3.org/2000/svg">
<path d="M8.63672 0.988281H11.2383V2.5H0.761719V0.988281H3.36328L4.13672 0.25H7.86328L8.63672 0.988281ZM3.01172 4.75V12.2383H8.98828V4.75H3.01172ZM1.5 12.2383V3.23828H10.5V12.2383C10.5 12.6367 10.3477 12.9883 10.043 13.293C9.73828 13.5977 9.38672 13.75 8.98828 13.75H3.01172C2.61328 13.75 2.26172 13.5977 1.95703 13.293C1.65234 12.9883 1.5 12.6367 1.5 12.2383Z" fill="#A3A3A3"/>
<path d="M8.63672 0.988281L7.67005 2.00098L8.0758 2.38828H8.63672V0.988281ZM11.2383 0.988281H12.6383V-0.411719H11.2383V0.988281ZM11.2383 2.5V3.9H12.6383V2.5H11.2383ZM0.761719 2.5H-0.638281V3.9H0.761719V2.5ZM0.761719 0.988281V-0.411719H-0.638281V0.988281H0.761719ZM3.36328 0.988281V2.38828H3.9242L4.32995 2.00098L3.36328 0.988281ZM4.13672 0.25V-1.15H3.5758L3.17005 -0.762698L4.13672 0.25ZM7.86328 0.25L8.82995 -0.762698L8.4242 -1.15H7.86328V0.25ZM3.01172 4.75V3.35H1.61172V4.75H3.01172ZM3.01172 12.2383H1.61172V13.6383H3.01172V12.2383ZM8.98828 12.2383V13.6383H10.3883V12.2383H8.98828ZM8.98828 4.75H10.3883V3.35H8.98828V4.75ZM1.5 3.23828V1.83828H0.0999999V3.23828H1.5ZM10.5 3.23828H11.9V1.83828H10.5V3.23828ZM8.63672 2.38828H11.2383V-0.411719H8.63672V2.38828ZM9.83828 0.988281V2.5H12.6383V0.988281H9.83828ZM11.2383 1.1H0.761719V3.9H11.2383V1.1ZM2.16172 2.5V0.988281H-0.638281V2.5H2.16172ZM0.761719 2.38828H3.36328V-0.411719H0.761719V2.38828ZM4.32995 2.00098L5.10338 1.2627L3.17005 -0.762698L2.39662 -0.0244164L4.32995 2.00098ZM4.13672 1.65H7.86328V-1.15H4.13672V1.65ZM6.89662 1.2627L7.67005 2.00098L9.60338 -0.0244164L8.82995 -0.762698L6.89662 1.2627ZM1.61172 4.75V12.2383H4.41172V4.75H1.61172ZM3.01172 13.6383H8.98828V10.8383H3.01172V13.6383ZM10.3883 12.2383V4.75H7.58828V12.2383H10.3883ZM8.98828 3.35H3.01172V6.15H8.98828V3.35ZM2.9 12.2383V3.23828H0.0999999V12.2383H2.9ZM1.5 4.63828H10.5V1.83828H1.5V4.63828ZM9.1 3.23828V12.2383H11.9V3.23828H9.1ZM9.1 12.2383C9.1 12.2481 9.09911 12.2513 9.09945 12.2496C9.09982 12.2478 9.10058 12.2455 9.10116 12.2441C9.10325 12.2393 9.09621 12.2598 9.05302 12.303L11.0329 14.2829C11.5765 13.7393 11.9 13.0401 11.9 12.2383H9.1ZM9.05302 12.303C9.00983 12.3462 8.98932 12.3533 8.99413 12.3512C8.99549 12.3506 8.99782 12.3498 8.99964 12.3495C9.00131 12.3491 8.99814 12.35 8.98828 12.35V15.15C9.79013 15.15 10.4893 14.8265 11.0329 14.2829L9.05302 12.303ZM8.98828 12.35H3.01172V15.15H8.98828V12.35ZM3.01172 12.35C3.00186 12.35 2.99869 12.3491 3.00036 12.3495C3.00218 12.3498 3.00451 12.3506 3.00587 12.3512C3.01068 12.3533 2.99017 12.3462 2.94698 12.303L0.967082 14.2829C1.51071 14.8265 2.20987 15.15 3.01172 15.15V12.35ZM2.94698 12.303C2.90379 12.2598 2.89675 12.2393 2.89884 12.2441C2.89942 12.2455 2.90018 12.2478 2.90055 12.2496C2.90089 12.2513 2.9 12.2481 2.9 12.2383H0.0999999C0.0999999 13.0401 0.423453 13.7393 0.967082 14.2829L2.94698 12.303Z" fill="#A3A3A3"/>
</svg>
