<svg width="15" height="11" viewBox="0 0 15 11" fill="none" xmlns="http://www.w3.org/2000/svg">
<path d="M14.6797 6.4375C14.6797 6.59896 14.599 6.77083 14.4375 6.95312L11.8125 10.0469C11.5885 10.3125 11.2734 10.5391 10.8672 10.7266C10.4661 10.9089 10.0938 11 9.75 11H1.25C1.07292 11 0.914063 10.9661 0.773438 10.8984C0.638021 10.8307 0.570313 10.7187 0.570313 10.5625C0.570313 10.401 0.651042 10.2292 0.8125 10.0469L3.4375 6.95312C3.66146 6.6875 3.97396 6.46354 4.375 6.28125C4.78125 6.09375 5.15625 6 5.5 6H14C14.1771 6 14.3333 6.03385 14.4688 6.10156C14.6094 6.16927 14.6797 6.28125 14.6797 6.4375ZM12 3.75V5H5.5C5.01042 5 4.4974 5.125 3.96094 5.375C3.42448 5.61979 2.9974 5.92969 2.67969 6.30469L0.046875 9.39844L0.0078125 9.44531C0.0078125 9.42448 0.00520833 9.39323 0 9.35156C0 9.30469 0 9.27083 0 9.25V1.75C0 1.27083 0.171875 0.859375 0.515625 0.515625C0.859375 0.171874 1.27083 -5.96046e-07 1.75 -5.96046e-07H4.25C4.72917 -5.96046e-07 5.14063 0.171874 5.48438 0.515625C5.82813 0.859375 6 1.27083 6 1.75V2H10.25C10.7292 2 11.1406 2.17187 11.4844 2.51562C11.8281 2.85937 12 3.27083 12 3.75Z" fill="#A3A3A3"/>
<path d="M14.4375 6.95312L13.3895 6.02487L13.3796 6.03601L13.37 6.04736L14.4375 6.95312ZM11.8125 10.0469L10.745 9.1411L10.7422 9.14444L11.8125 10.0469ZM10.8672 10.7266L11.4465 12.0011L11.4539 11.9977L10.8672 10.7266ZM0.773438 10.8984L0.147338 12.1506L0.156683 12.1553L0.166096 12.1598L0.773438 10.8984ZM0.8125 10.0469L1.86052 10.9751L1.87039 10.964L1.88001 10.9526L0.8125 10.0469ZM3.4375 6.95312L4.50502 7.8589L4.50783 7.85556L3.4375 6.95312ZM4.375 6.28125L4.95433 7.55578L4.96168 7.55239L4.375 6.28125ZM14.4688 6.10156L13.8427 7.35376L13.852 7.35843L13.8614 7.36296L14.4688 6.10156ZM12 5V6.4H13.4V5H12ZM3.96094 5.375L4.54214 6.64871L4.5523 6.64397L3.96094 5.375ZM2.67969 6.30469L3.74587 7.21202L3.74787 7.20967L2.67969 6.30469ZM0.046875 9.39844L-1.01931 8.49111L-1.024 8.49662L-1.02863 8.50218L0.046875 9.39844ZM0.0078125 9.44531H-1.39219V13.3122L1.08332 10.3416L0.0078125 9.44531ZM0 9.35156H-1.4V9.43872L-1.38919 9.52521L0 9.35156ZM0.515625 0.515625L-0.474325 -0.474325L0.515625 0.515625ZM6 2H4.6V3.4H6V2ZM13.2797 6.4375C13.2797 6.27935 13.3201 6.16008 13.352 6.09231C13.3818 6.02884 13.4053 6.00705 13.3895 6.02487L15.4855 7.88138C15.7621 7.56911 16.0797 7.07844 16.0797 6.4375H13.2797ZM13.37 6.04736L10.745 9.14111L12.88 10.9526L15.505 7.85889L13.37 6.04736ZM10.7422 9.14444C10.6828 9.21487 10.5521 9.33006 10.2805 9.45542L11.4539 11.9977C11.9948 11.7481 12.4943 11.4101 12.8828 10.9493L10.7422 9.14444ZM10.2879 9.45205C10.0194 9.57406 9.84601 9.6 9.75 9.6V12.4C10.3415 12.4 10.9129 12.2436 11.4465 12.0011L10.2879 9.45205ZM9.75 9.6H1.25V12.4H9.75V9.6ZM1.25 9.6C1.25081 9.6 1.26518 9.6001 1.28985 9.60536C1.31509 9.61074 1.34658 9.62057 1.38078 9.63704L0.166096 12.1598C0.520227 12.3303 0.891045 12.4 1.25 12.4V9.6ZM1.39954 9.64624C1.5306 9.71177 1.69565 9.83508 1.81912 10.0393C1.94102 10.2409 1.97031 10.4351 1.97031 10.5625H-0.829687C-0.829687 10.8461 -0.766541 11.1745 -0.576931 11.4881C-0.385752 11.8042 -0.119139 12.0174 0.147338 12.1506L1.39954 9.64624ZM1.97031 10.5625C1.97031 10.7207 1.92987 10.8399 1.89804 10.9077C1.86823 10.9712 1.84473 10.993 1.86052 10.9751L-0.235523 9.11863C-0.5121 9.43089 -0.829687 9.92156 -0.829687 10.5625H1.97031ZM1.88001 10.9526L4.50501 7.85889L2.36999 6.04736L-0.255013 9.14111L1.88001 10.9526ZM4.50783 7.85556C4.56686 7.78555 4.69341 7.67436 4.95432 7.55576L3.79568 5.00674C3.25451 5.25272 2.75605 5.58945 2.36717 6.05069L4.50783 7.85556ZM4.96168 7.55239C5.23719 7.42523 5.41021 7.4 5.5 7.4V4.6C4.90229 4.6 4.32531 4.76227 3.78832 5.01011L4.96168 7.55239ZM5.5 7.4H14V4.6H5.5V7.4ZM14 7.4C13.9965 7.4 13.9321 7.39846 13.8427 7.35376L15.0948 4.84936C14.7346 4.66925 14.3576 4.6 14 4.6V7.4ZM13.8614 7.36296C13.7376 7.30334 13.57 7.18576 13.4413 6.9808C13.3127 6.77594 13.2797 6.57425 13.2797 6.4375H16.0797C16.0797 6.1445 16.0115 5.80869 15.8126 5.49185C15.6136 5.17492 15.3405 4.96749 15.0761 4.84016L13.8614 7.36296ZM10.6 3.75V5H13.4V3.75H10.6ZM12 3.6H5.5V6.4H12V3.6ZM5.5 3.6C4.76794 3.6 4.05321 3.78744 3.36957 4.10603L4.5523 6.64397C4.94158 6.46256 5.2529 6.4 5.5 6.4V3.6ZM3.37975 4.10134C2.69272 4.41483 2.08639 4.83919 1.61151 5.3997L3.74787 7.20967C3.9084 7.02018 4.15624 6.82475 4.54212 6.64866L3.37975 4.10134ZM1.6135 5.39735L-1.01931 8.49111L1.11306 10.3058L3.74587 7.21202L1.6135 5.39735ZM-1.02863 8.50218L-1.0677 8.54905L1.08332 10.3416L1.12238 10.2947L-1.02863 8.50218ZM1.40781 9.44531C1.40781 9.33382 1.39592 9.23173 1.38919 9.17791L-1.38919 9.52521C-1.38823 9.5329 -1.38858 9.53121 -1.3893 9.52251C-1.38969 9.51787 -1.39035 9.50932 -1.39093 9.49765C-1.39149 9.48637 -1.39219 9.46834 -1.39219 9.44531H1.40781ZM1.4 9.35156C1.4 9.35147 1.4 9.35138 1.4 9.35129C1.4 9.3512 1.4 9.3511 1.4 9.35101C1.4 9.35092 1.4 9.35083 1.4 9.35074C1.4 9.35065 1.4 9.35056 1.4 9.35047C1.4 9.35038 1.4 9.35028 1.4 9.35019C1.4 9.3501 1.4 9.35001 1.4 9.34992C1.4 9.34983 1.4 9.34974 1.4 9.34965C1.4 9.34956 1.4 9.34947 1.4 9.34937C1.4 9.34928 1.4 9.34919 1.4 9.3491C1.4 9.34901 1.4 9.34892 1.4 9.34883C1.4 9.34874 1.4 9.34865 1.4 9.34856C1.4 9.34847 1.4 9.34838 1.4 9.34829C1.4 9.3482 1.4 9.34811 1.4 9.34802C1.4 9.34793 1.4 9.34784 1.4 9.34775C1.4 9.34766 1.4 9.34757 1.4 9.34748C1.4 9.34739 1.4 9.3473 1.4 9.34721C1.4 9.34712 1.4 9.34703 1.4 9.34694C1.4 9.34685 1.4 9.34676 1.4 9.34667C1.4 9.34658 1.4 9.34649 1.4 9.3464C1.4 9.34631 1.4 9.34622 1.4 9.34613C1.4 9.34604 1.4 9.34595 1.4 9.34586C1.4 9.34577 1.4 9.34568 1.4 9.34559C1.4 9.3455 1.4 9.34541 1.4 9.34532C1.4 9.34523 1.4 9.34515 1.4 9.34506C1.4 9.34497 1.4 9.34488 1.4 9.34479C1.4 9.3447 1.4 9.34461 1.4 9.34452C1.4 9.34443 1.4 9.34434 1.4 9.34426C1.4 9.34417 1.4 9.34408 1.4 9.34399C1.4 9.3439 1.4 9.34381 1.4 9.34372C1.4 9.34363 1.4 9.34354 1.4 9.34346C1.4 9.34337 1.4 9.34328 1.4 9.34319C1.4 9.3431 1.4 9.34301 1.4 9.34293C1.4 9.34284 1.4 9.34275 1.4 9.34266C1.4 9.34257 1.4 9.34248 1.4 9.3424C1.4 9.34231 1.4 9.34222 1.4 9.34213C1.4 9.34204 1.4 9.34196 1.4 9.34187C1.4 9.34178 1.4 9.34169 1.4 9.3416C1.4 9.34152 1.4 9.34143 1.4 9.34134C1.4 9.34125 1.4 9.34117 1.4 9.34108C1.4 9.34099 1.4 9.3409 1.4 9.34081C1.4 9.34073 1.4 9.34064 1.4 9.34055C1.4 9.34046 1.4 9.34038 1.4 9.34029C1.4 9.3402 1.4 9.34011 1.4 9.34003C1.4 9.33994 1.4 9.33985 1.4 9.33977C1.4 9.33968 1.4 9.33959 1.4 9.3395C1.4 9.33942 1.4 9.33933 1.4 9.33924C1.4 9.33916 1.4 9.33907 1.4 9.33898C1.4 9.3389 1.4 9.33881 1.4 9.33872C1.4 9.33864 1.4 9.33855 1.4 9.33846C1.4 9.33838 1.4 9.33829 1.4 9.3382C1.4 9.33812 1.4 9.33803 1.4 9.33794C1.4 9.33786 1.4 9.33777 1.4 9.33768C1.4 9.3376 1.4 9.33751 1.4 9.33742C1.4 9.33734 1.4 9.33725 1.4 9.33717C1.4 9.33708 1.4 9.33699 1.4 9.33691C1.4 9.33682 1.4 9.33673 1.4 9.33665C1.4 9.33656 1.4 9.33648 1.4 9.33639C1.4 9.33631 1.4 9.33622 1.4 9.33613C1.4 9.33605 1.4 9.33596 1.4 9.33588C1.4 9.33579 1.4 9.3357 1.4 9.33562C1.4 9.33553 1.4 9.33545 1.4 9.33536C1.4 9.33528 1.4 9.33519 1.4 9.33511C1.4 9.33502 1.4 9.33494 1.4 9.33485C1.4 9.33477 1.4 9.33468 1.4 9.33459C1.4 9.33451 1.4 9.33442 1.4 9.33434C1.4 9.33425 1.4 9.33417 1.4 9.33408C1.4 9.334 1.4 9.33391 1.4 9.33383C1.4 9.33374 1.4 9.33366 1.4 9.33357C1.4 9.33349 1.4 9.33341 1.4 9.33332C1.4 9.33324 1.4 9.33315 1.4 9.33307C1.4 9.33298 1.4 9.3329 1.4 9.33281C1.4 9.33273 1.4 9.33264 1.4 9.33256C1.4 9.33247 1.4 9.33239 1.4 9.33231C1.4 9.33222 1.4 9.33214 1.4 9.33205C1.4 9.33197 1.4 9.33189 1.4 9.3318C1.4 9.33172 1.4 9.33163 1.4 9.33155C1.4 9.33146 1.4 9.33138 1.4 9.3313C1.4 9.33121 1.4 9.33113 1.4 9.33105C1.4 9.33096 1.4 9.33088 1.4 9.33079C1.4 9.33071 1.4 9.33063 1.4 9.33054C1.4 9.33046 1.4 9.33038 1.4 9.33029C1.4 9.33021 1.4 9.33013 1.4 9.33004C1.4 9.32996 1.4 9.32988 1.4 9.32979C1.4 9.32971 1.4 9.32963 1.4 9.32954C1.4 9.32946 1.4 9.32938 1.4 9.32929C1.4 9.32921 1.4 9.32913 1.4 9.32904C1.4 9.32896 1.4 9.32888 1.4 9.3288C1.4 9.32871 1.4 9.32863 1.4 9.32855C1.4 9.32846 1.4 9.32838 1.4 9.3283C1.4 9.32822 1.4 9.32813 1.4 9.32805C1.4 9.32797 1.4 9.32788 1.4 9.3278C1.4 9.32772 1.4 9.32764 1.4 9.32755C1.4 9.32747 1.4 9.32739 1.4 9.32731C1.4 9.32723 1.4 9.32714 1.4 9.32706C1.4 9.32698 1.4 9.3269 1.4 9.32681C1.4 9.32673 1.4 9.32665 1.4 9.32657C1.4 9.32649 1.4 9.3264 1.4 9.32632C1.4 9.32624 1.4 9.32616 1.4 9.32608C1.4 9.326 1.4 9.32591 1.4 9.32583C1.4 9.32575 1.4 9.32567 1.4 9.32559C1.4 9.32551 1.4 9.32542 1.4 9.32534C1.4 9.32526 1.4 9.32518 1.4 9.3251C1.4 9.32502 1.4 9.32493 1.4 9.32485C1.4 9.32477 1.4 9.32469 1.4 9.32461C1.4 9.32453 1.4 9.32445 1.4 9.32437C1.4 9.32429 1.4 9.3242 1.4 9.32412C1.4 9.32404 1.4 9.32396 1.4 9.32388C1.4 9.3238 1.4 9.32372 1.4 9.32364C1.4 9.32356 1.4 9.32348 1.4 9.32339C1.4 9.32331 1.4 9.32323 1.4 9.32315C1.4 9.32307 1.4 9.32299 1.4 9.32291C1.4 9.32283 1.4 9.32275 1.4 9.32267C1.4 9.32259 1.4 9.32251 1.4 9.32243C1.4 9.32235 1.4 9.32227 1.4 9.32219C1.4 9.32211 1.4 9.32203 1.4 9.32195C1.4 9.32187 1.4 9.32179 1.4 9.32171C1.4 9.32163 1.4 9.32155 1.4 9.32147C1.4 9.32139 1.4 9.32131 1.4 9.32123C1.4 9.32115 1.4 9.32107 1.4 9.32099C1.4 9.32091 1.4 9.32083 1.4 9.32075C1.4 9.32067 1.4 9.32059 1.4 9.32051C1.4 9.32043 1.4 9.32035 1.4 9.32027C1.4 9.32019 1.4 9.32011 1.4 9.32003C1.4 9.31995 1.4 9.31987 1.4 9.3198C1.4 9.31972 1.4 9.31964 1.4 9.31956C1.4 9.31948 1.4 9.3194 1.4 9.31932C1.4 9.31924 1.4 9.31916 1.4 9.31908C1.4 9.31901 1.4 9.31893 1.4 9.31885C1.4 9.31877 1.4 9.31869 1.4 9.31861C1.4 9.31853 1.4 9.31845 1.4 9.31838C1.4 9.3183 1.4 9.31822 1.4 9.31814C1.4 9.31806 1.4 9.31798 1.4 9.3179C1.4 9.31783 1.4 9.31775 1.4 9.31767C1.4 9.31759 1.4 9.31751 1.4 9.31743C1.4 9.31736 1.4 9.31728 1.4 9.3172C1.4 9.31712 1.4 9.31704 1.4 9.31697C1.4 9.31689 1.4 9.31681 1.4 9.31673C1.4 9.31665 1.4 9.31658 1.4 9.3165C1.4 9.31642 1.4 9.31634 1.4 9.31626C1.4 9.31619 1.4 9.31611 1.4 9.31603C1.4 9.31595 1.4 9.31588 1.4 9.3158C1.4 9.31572 1.4 9.31564 1.4 9.31557C1.4 9.31549 1.4 9.31541 1.4 9.31533C1.4 9.31526 1.4 9.31518 1.4 9.3151C1.4 9.31502 1.4 9.31495 1.4 9.31487C1.4 9.31479 1.4 9.31472 1.4 9.31464C1.4 9.31456 1.4 9.31448 1.4 9.31441C1.4 9.31433 1.4 9.31425 1.4 9.31418C1.4 9.3141 1.4 9.31402 1.4 9.31395C1.4 9.31387 1.4 9.31379 1.4 9.31372C1.4 9.31364 1.4 9.31356 1.4 9.31349C1.4 9.31341 1.4 9.31333 1.4 9.31326C1.4 9.31318 1.4 9.3131 1.4 9.31303C1.4 9.31295 1.4 9.31287 1.4 9.3128C1.4 9.31272 1.4 9.31265 1.4 9.31257C1.4 9.31249 1.4 9.31242 1.4 9.31234C1.4 9.31227 1.4 9.31219 1.4 9.31211C1.4 9.31204 1.4 9.31196 1.4 9.31189C1.4 9.31181 1.4 9.31174 1.4 9.31166C1.4 9.31158 1.4 9.31151 1.4 9.31143C1.4 9.31136 1.4 9.31128 1.4 9.3112C1.4 9.31113 1.4 9.31105 1.4 9.31098C1.4 9.3109 1.4 9.31083 1.4 9.31075C1.4 9.31068 1.4 9.3106 1.4 9.31053C1.4 9.31045 1.4 9.31038 1.4 9.3103C1.4 9.31023 1.4 9.31015 1.4 9.31008C1.4 9.31 1.4 9.30993 1.4 9.30985C1.4 9.30978 1.4 9.3097 1.4 9.30963C1.4 9.30955 1.4 9.30948 1.4 9.3094C1.4 9.30933 1.4 9.30925 1.4 9.30918C1.4 9.3091 1.4 9.30903 1.4 9.30895C1.4 9.30888 1.4 9.3088 1.4 9.30873C1.4 9.30865 1.4 9.30858 1.4 9.30851C1.4 9.30843 1.4 9.30836 1.4 9.30828C1.4 9.30821 1.4 9.30814 1.4 9.30806C1.4 9.30799 1.4 9.30791 1.4 9.30784C1.4 9.30776 1.4 9.30769 1.4 9.30762C1.4 9.30754 1.4 9.30747 1.4 9.30739C1.4 9.30732 1.4 9.30725 1.4 9.30717C1.4 9.3071 1.4 9.30703 1.4 9.30695C1.4 9.30688 1.4 9.3068 1.4 9.30673C1.4 9.30666 1.4 9.30658 1.4 9.30651C1.4 9.30644 1.4 9.30636 1.4 9.30629C1.4 9.30622 1.4 9.30614 1.4 9.30607C1.4 9.306 1.4 9.30592 1.4 9.30585C1.4 9.30578 1.4 9.3057 1.4 9.30563C1.4 9.30556 1.4 9.30548 1.4 9.30541C1.4 9.30534 1.4 9.30527 1.4 9.30519C1.4 9.30512 1.4 9.30505 1.4 9.30497C1.4 9.3049 1.4 9.30483 1.4 9.30476C1.4 9.30468 1.4 9.30461 1.4 9.30454C1.4 9.30447 1.4 9.30439 1.4 9.30432C1.4 9.30425 1.4 9.30418 1.4 9.3041C1.4 9.30403 1.4 9.30396 1.4 9.30389C1.4 9.30381 1.4 9.30374 1.4 9.30367C1.4 9.3036 1.4 9.30353 1.4 9.30345C1.4 9.30338 1.4 9.30331 1.4 9.30324C1.4 9.30317 1.4 9.30309 1.4 9.30302C1.4 9.30295 1.4 9.30288 1.4 9.30281C1.4 9.30273 1.4 9.30266 1.4 9.30259C1.4 9.30252 1.4 9.30245 1.4 9.30238C1.4 9.30231 1.4 9.30223 1.4 9.30216C1.4 9.30209 1.4 9.30202 1.4 9.30195C1.4 9.30188 1.4 9.3018 1.4 9.30173C1.4 9.30166 1.4 9.30159 1.4 9.30152C1.4 9.30145 1.4 9.30138 1.4 9.30131C1.4 9.30124 1.4 9.30116 1.4 9.30109C1.4 9.30102 1.4 9.30095 1.4 9.30088C1.4 9.30081 1.4 9.30074 1.4 9.30067C1.4 9.3006 1.4 9.30053 1.4 9.30046C1.4 9.30038 1.4 9.30031 1.4 9.30024C1.4 9.30017 1.4 9.3001 1.4 9.30003C1.4 9.29996 1.4 9.29989 1.4 9.29982C1.4 9.29975 1.4 9.29968 1.4 9.29961C1.4 9.29954 1.4 9.29947 1.4 9.2994C1.4 9.29933 1.4 9.29926 1.4 9.29919C1.4 9.29912 1.4 9.29905 1.4 9.29898C1.4 9.29891 1.4 9.29884 1.4 9.29877C1.4 9.2987 1.4 9.29863 1.4 9.29856C1.4 9.29849 1.4 9.29842 1.4 9.29835C1.4 9.29828 1.4 9.29821 1.4 9.29814C1.4 9.29807 1.4 9.298 1.4 9.29793C1.4 9.29786 1.4 9.29779 1.4 9.29772C1.4 9.29765 1.4 9.29759 1.4 9.29752C1.4 9.29745 1.4 9.29738 1.4 9.29731C1.4 9.29724 1.4 9.29717 1.4 9.2971C1.4 9.29703 1.4 9.29696 1.4 9.29689C1.4 9.29682 1.4 9.29676 1.4 9.29669C1.4 9.29662 1.4 9.29655 1.4 9.29648C1.4 9.29641 1.4 9.29634 1.4 9.29627C1.4 9.2962 1.4 9.29614 1.4 9.29607C1.4 9.296 1.4 9.29593 1.4 9.29586C1.4 9.29579 1.4 9.29572 1.4 9.29566C1.4 9.29559 1.4 9.29552 1.4 9.29545C1.4 9.29538 1.4 9.29531 1.4 9.29525C1.4 9.29518 1.4 9.29511 1.4 9.29504C1.4 9.29497 1.4 9.29491 1.4 9.29484C1.4 9.29477 1.4 9.2947 1.4 9.29463C1.4 9.29457 1.4 9.2945 1.4 9.29443C1.4 9.29436 1.4 9.2943 1.4 9.29423C1.4 9.29416 1.4 9.29409 1.4 9.29402C1.4 9.29396 1.4 9.29389 1.4 9.29382C1.4 9.29375 1.4 9.29369 1.4 9.29362C1.4 9.29355 1.4 9.29348 1.4 9.29342C1.4 9.29335 1.4 9.29328 1.4 9.29322C1.4 9.29315 1.4 9.29308 1.4 9.29301C1.4 9.29295 1.4 9.29288 1.4 9.29281C1.4 9.29275 1.4 9.29268 1.4 9.29261C1.4 9.29255 1.4 9.29248 1.4 9.29241C1.4 9.29235 1.4 9.29228 1.4 9.29221C1.4 9.29214 1.4 9.29208 1.4 9.29201C1.4 9.29194 1.4 9.29188 1.4 9.29181C1.4 9.29175 1.4 9.29168 1.4 9.29161C1.4 9.29155 1.4 9.29148 1.4 9.29141C1.4 9.29135 1.4 9.29128 1.4 9.29121C1.4 9.29115 1.4 9.29108 1.4 9.29102C1.4 9.29095 1.4 9.29088 1.4 9.29082C1.4 9.29075 1.4 9.29069 1.4 9.29062C1.4 9.29055 1.4 9.29049 1.4 9.29042C1.4 9.29036 1.4 9.29029 1.4 9.29022C1.4 9.29016 1.4 9.29009 1.4 9.29003C1.4 9.28996 1.4 9.2899 1.4 9.28983C1.4 9.28977 1.4 9.2897 1.4 9.28963C1.4 9.28957 1.4 9.2895 1.4 9.28944C1.4 9.28937 1.4 9.28931 1.4 9.28924C1.4 9.28918 1.4 9.28911 1.4 9.28905C1.4 9.28898 1.4 9.28892 1.4 9.28885C1.4 9.28879 1.4 9.28872 1.4 9.28866C1.4 9.28859 1.4 9.28853 1.4 9.28846C1.4 9.2884 1.4 9.28833 1.4 9.28827C1.4 9.2882 1.4 9.28814 1.4 9.28807C1.4 9.28801 1.4 9.28794 1.4 9.28788C1.4 9.28782 1.4 9.28775 1.4 9.28769C1.4 9.28762 1.4 9.28756 1.4 9.28749C1.4 9.28743 1.4 9.28736 1.4 9.2873C1.4 9.28724 1.4 9.28717 1.4 9.28711C1.4 9.28704 1.4 9.28698 1.4 9.28692C1.4 9.28685 1.4 9.28679 1.4 9.28672C1.4 9.28666 1.4 9.2866 1.4 9.28653C1.4 9.28647 1.4 9.2864 1.4 9.28634C1.4 9.28628 1.4 9.28621 1.4 9.28615C1.4 9.28609 1.4 9.28602 1.4 9.28596C1.4 9.2859 1.4 9.28583 1.4 9.28577C1.4 9.2857 1.4 9.28564 1.4 9.28558C1.4 9.28551 1.4 9.28545 1.4 9.28539C1.4 9.28533 1.4 9.28526 1.4 9.2852C1.4 9.28514 1.4 9.28507 1.4 9.28501C1.4 9.28495 1.4 9.28488 1.4 9.28482C1.4 9.28476 1.4 9.28469 1.4 9.28463C1.4 9.28457 1.4 9.28451 1.4 9.28444C1.4 9.28438 1.4 9.28432 1.4 9.28426C1.4 9.28419 1.4 9.28413 1.4 9.28407C1.4 9.28401 1.4 9.28394 1.4 9.28388C1.4 9.28382 1.4 9.28376 1.4 9.28369C1.4 9.28363 1.4 9.28357 1.4 9.28351C1.4 9.28344 1.4 9.28338 1.4 9.28332C1.4 9.28326 1.4 9.2832 1.4 9.28313C1.4 9.28307 1.4 9.28301 1.4 9.28295C1.4 9.28289 1.4 9.28282 1.4 9.28276C1.4 9.2827 1.4 9.28264 1.4 9.28258C1.4 9.28251 1.4 9.28245 1.4 9.28239C1.4 9.28233 1.4 9.28227 1.4 9.28221C1.4 9.28214 1.4 9.28208 1.4 9.28202C1.4 9.28196 1.4 9.2819 1.4 9.28184C1.4 9.28178 1.4 9.28171 1.4 9.28165C1.4 9.28159 1.4 9.28153 1.4 9.28147C1.4 9.28141 1.4 9.28135 1.4 9.28129C1.4 9.28123 1.4 9.28116 1.4 9.2811C1.4 9.28104 1.4 9.28098 1.4 9.28092C1.4 9.28086 1.4 9.2808 1.4 9.28074C1.4 9.28068 1.4 9.28062 1.4 9.28056C1.4 9.2805 1.4 9.28043 1.4 9.28037C1.4 9.28031 1.4 9.28025 1.4 9.28019C1.4 9.28013 1.4 9.28007 1.4 9.28001C1.4 9.27995 1.4 9.27989 1.4 9.27983C1.4 9.27977 1.4 9.27971 1.4 9.27965C1.4 9.27959 1.4 9.27953 1.4 9.27947C1.4 9.27941 1.4 9.27935 1.4 9.27929C1.4 9.27923 1.4 9.27917 1.4 9.27911C1.4 9.27905 1.4 9.27899 1.4 9.27893C1.4 9.27887 1.4 9.27881 1.4 9.27875C1.4 9.27869 1.4 9.27863 1.4 9.27857C1.4 9.27851 1.4 9.27845 1.4 9.27839C1.4 9.27833 1.4 9.27828 1.4 9.27822C1.4 9.27816 1.4 9.2781 1.4 9.27804C1.4 9.27798 1.4 9.27792 1.4 9.27786C1.4 9.2778 1.4 9.27774 1.4 9.27768C1.4 9.27762 1.4 9.27757 1.4 9.27751C1.4 9.27745 1.4 9.27739 1.4 9.27733C1.4 9.27727 1.4 9.27721 1.4 9.27715C1.4 9.27709 1.4 9.27703 1.4 9.27698C1.4 9.27692 1.4 9.27686 1.4 9.2768C1.4 9.27674 1.4 9.27668 1.4 9.27662C1.4 9.27657 1.4 9.27651 1.4 9.27645C1.4 9.27639 1.4 9.27633 1.4 9.27627C1.4 9.27622 1.4 9.27616 1.4 9.2761C1.4 9.27604 1.4 9.27598 1.4 9.27593C1.4 9.27587 1.4 9.27581 1.4 9.27575C1.4 9.27569 1.4 9.27564 1.4 9.27558C1.4 9.27552 1.4 9.27546 1.4 9.2754C1.4 9.27535 1.4 9.27529 1.4 9.27523C1.4 9.27517 1.4 9.27512 1.4 9.27506C1.4 9.275 1.4 9.27494 1.4 9.27489C1.4 9.27483 1.4 9.27477 1.4 9.27471C1.4 9.27466 1.4 9.2746 1.4 9.27454C1.4 9.27448 1.4 9.27443 1.4 9.27437C1.4 9.27431 1.4 9.27426 1.4 9.2742C1.4 9.27414 1.4 9.27408 1.4 9.27403C1.4 9.27397 1.4 9.27391 1.4 9.27386C1.4 9.2738 1.4 9.27374 1.4 9.27369C1.4 9.27363 1.4 9.27357 1.4 9.27352C1.4 9.27346 1.4 9.2734 1.4 9.27335C1.4 9.27329 1.4 9.27323 1.4 9.27318C1.4 9.27312 1.4 9.27306 1.4 9.27301C1.4 9.27295 1.4 9.27289 1.4 9.27284C1.4 9.27278 1.4 9.27273 1.4 9.27267C1.4 9.27261 1.4 9.27256 1.4 9.2725C1.4 9.27244 1.4 9.27239 1.4 9.27233C1.4 9.27228 1.4 9.27222 1.4 9.27217C1.4 9.27211 1.4 9.27205 1.4 9.272C1.4 9.27194 1.4 9.27189 1.4 9.27183C1.4 9.27177 1.4 9.27172 1.4 9.27166C1.4 9.27161 1.4 9.27155 1.4 9.2715C1.4 9.27144 1.4 9.27139 1.4 9.27133C1.4 9.27127 1.4 9.27122 1.4 9.27116C1.4 9.27111 1.4 9.27105 1.4 9.271C1.4 9.27094 1.4 9.27089 1.4 9.27083C1.4 9.27078 1.4 9.27072 1.4 9.27067C1.4 9.27061 1.4 9.27056 1.4 9.2705C1.4 9.27045 1.4 9.27039 1.4 9.27034C1.4 9.27028 1.4 9.27023 1.4 9.27017C1.4 9.27012 1.4 9.27007 1.4 9.27001C1.4 9.26996 1.4 9.2699 1.4 9.26985C1.4 9.26979 1.4 9.26974 1.4 9.26968C1.4 9.26963 1.4 9.26958 1.4 9.26952C1.4 9.26947 1.4 9.26941 1.4 9.26936C1.4 9.2693 1.4 9.26925 1.4 9.2692C1.4 9.26914 1.4 9.26909 1.4 9.26903C1.4 9.26898 1.4 9.26892 1.4 9.26887C1.4 9.26882 1.4 9.26876 1.4 9.26871C1.4 9.26866 1.4 9.2686 1.4 9.26855C1.4 9.26849 1.4 9.26844 1.4 9.26839C1.4 9.26833 1.4 9.26828 1.4 9.26823C1.4 9.26817 1.4 9.26812 1.4 9.26807C1.4 9.26801 1.4 9.26796 1.4 9.26791C1.4 9.26785 1.4 9.2678 1.4 9.26775C1.4 9.26769 1.4 9.26764 1.4 9.26759C1.4 9.26753 1.4 9.26748 1.4 9.26743C1.4 9.26737 1.4 9.26732 1.4 9.26727C1.4 9.26722 1.4 9.26716 1.4 9.26711C1.4 9.26706 1.4 9.267 1.4 9.26695C1.4 9.2669 1.4 9.26685 1.4 9.26679C1.4 9.26674 1.4 9.26669 1.4 9.26664C1.4 9.26658 1.4 9.26653 1.4 9.26648C1.4 9.26643 1.4 9.26637 1.4 9.26632C1.4 9.26627 1.4 9.26622 1.4 9.26616C1.4 9.26611 1.4 9.26606 1.4 9.26601C1.4 9.26596 1.4 9.2659 1.4 9.26585C1.4 9.2658 1.4 9.26575 1.4 9.2657C1.4 9.26565 1.4 9.26559 1.4 9.26554C1.4 9.26549 1.4 9.26544 1.4 9.26539C1.4 9.26533 1.4 9.26528 1.4 9.26523C1.4 9.26518 1.4 9.26513 1.4 9.26508C1.4 9.26502 1.4 9.26497 1.4 9.26492C1.4 9.26487 1.4 9.26482 1.4 9.26477C1.4 9.26472 1.4 9.26466 1.4 9.26461C1.4 9.26456 1.4 9.26451 1.4 9.26446C1.4 9.26441 1.4 9.26436 1.4 9.26431C1.4 9.26426 1.4 9.2642 1.4 9.26415C1.4 9.2641 1.4 9.26405 1.4 9.264C1.4 9.26395 1.4 9.2639 1.4 9.26385C1.4 9.2638 1.4 9.26375 1.4 9.2637C1.4 9.26365 1.4 9.2636 1.4 9.26355C1.4 9.26349 1.4 9.26344 1.4 9.26339C1.4 9.26334 1.4 9.26329 1.4 9.26324C1.4 9.26319 1.4 9.26314 1.4 9.26309C1.4 9.26304 1.4 9.26299 1.4 9.26294C1.4 9.26289 1.4 9.26284 1.4 9.26279C1.4 9.26274 1.4 9.26269 1.4 9.26264C1.4 9.26259 1.4 9.26254 1.4 9.26249C1.4 9.26244 1.4 9.26239 1.4 9.26234C1.4 9.26229 1.4 9.26224 1.4 9.26219C1.4 9.26214 1.4 9.26209 1.4 9.26204C1.4 9.262 1.4 9.26195 1.4 9.2619C1.4 9.26185 1.4 9.2618 1.4 9.26175C1.4 9.2617 1.4 9.26165 1.4 9.2616C1.4 9.26155 1.4 9.2615 1.4 9.26145C1.4 9.2614 1.4 9.26135 1.4 9.2613C1.4 9.26126 1.4 9.26121 1.4 9.26116C1.4 9.26111 1.4 9.26106 1.4 9.26101C1.4 9.26096 1.4 9.26091 1.4 9.26087C1.4 9.26082 1.4 9.26077 1.4 9.26072C1.4 9.26067 1.4 9.26062 1.4 9.26057C1.4 9.26052 1.4 9.26048 1.4 9.26043C1.4 9.26038 1.4 9.26033 1.4 9.26028C1.4 9.26023 1.4 9.26019 1.4 9.26014C1.4 9.26009 1.4 9.26004 1.4 9.25999C1.4 9.25994 1.4 9.2599 1.4 9.25985C1.4 9.2598 1.4 9.25975 1.4 9.25971C1.4 9.25966 1.4 9.25961 1.4 9.25956C1.4 9.25951 1.4 9.25947 1.4 9.25942C1.4 9.25937 1.4 9.25932 1.4 9.25928C1.4 9.25923 1.4 9.25918 1.4 9.25913C1.4 9.25908 1.4 9.25904 1.4 9.25899C1.4 9.25894 1.4 9.25889 1.4 9.25885C1.4 9.2588 1.4 9.25875 1.4 9.25871C1.4 9.25866 1.4 9.25861 1.4 9.25856C1.4 9.25852 1.4 9.25847 1.4 9.25842C1.4 9.25838 1.4 9.25833 1.4 9.25828C1.4 9.25823 1.4 9.25819 1.4 9.25814C1.4 9.25809 1.4 9.25805 1.4 9.258C1.4 9.25795 1.4 9.25791 1.4 9.25786C1.4 9.25781 1.4 9.25777 1.4 9.25772C1.4 9.25767 1.4 9.25763 1.4 9.25758C1.4 9.25753 1.4 9.25749 1.4 9.25744C1.4 9.2574 1.4 9.25735 1.4 9.2573C1.4 9.25726 1.4 9.25721 1.4 9.25716C1.4 9.25712 1.4 9.25707 1.4 9.25703C1.4 9.25698 1.4 9.25693 1.4 9.25689C1.4 9.25684 1.4 9.2568 1.4 9.25675C1.4 9.2567 1.4 9.25666 1.4 9.25661C1.4 9.25657 1.4 9.25652 1.4 9.25648C1.4 9.25643 1.4 9.25638 1.4 9.25634C1.4 9.25629 1.4 9.25625 1.4 9.2562C1.4 9.25616 1.4 9.25611 1.4 9.25607C1.4 9.25602 1.4 9.25598 1.4 9.25593C1.4 9.25589 1.4 9.25584 1.4 9.25579C1.4 9.25575 1.4 9.2557 1.4 9.25566C1.4 9.25561 1.4 9.25557 1.4 9.25552C1.4 9.25548 1.4 9.25543 1.4 9.25539C1.4 9.25535 1.4 9.2553 1.4 9.25526C1.4 9.25521 1.4 9.25517 1.4 9.25512C1.4 9.25508 1.4 9.25503 1.4 9.25499C1.4 9.25494 1.4 9.2549 1.4 9.25485C1.4 9.25481 1.4 9.25476 1.4 9.25472C1.4 9.25468 1.4 9.25463 1.4 9.25459C1.4 9.25454 1.4 9.2545 1.4 9.25445C1.4 9.25441 1.4 9.25437 1.4 9.25432C1.4 9.25428 1.4 9.25423 1.4 9.25419C1.4 9.25415 1.4 9.2541 1.4 9.25406C1.4 9.25401 1.4 9.25397 1.4 9.25393C1.4 9.25388 1.4 9.25384 1.4 9.2538C1.4 9.25375 1.4 9.25371 1.4 9.25366C1.4 9.25362 1.4 9.25358 1.4 9.25353C1.4 9.25349 1.4 9.25345 1.4 9.2534C1.4 9.25336 1.4 9.25332 1.4 9.25327C1.4 9.25323 1.4 9.25319 1.4 9.25315C1.4 9.2531 1.4 9.25306 1.4 9.25302C1.4 9.25297 1.4 9.25293 1.4 9.25289C1.4 9.25284 1.4 9.2528 1.4 9.25276C1.4 9.25272 1.4 9.25267 1.4 9.25263C1.4 9.25259 1.4 9.25254 1.4 9.2525C1.4 9.25246 1.4 9.25242 1.4 9.25237C1.4 9.25233 1.4 9.25229 1.4 9.25225C1.4 9.2522 1.4 9.25216 1.4 9.25212C1.4 9.25208 1.4 9.25203 1.4 9.25199C1.4 9.25195 1.4 9.25191 1.4 9.25186C1.4 9.25182 1.4 9.25178 1.4 9.25174C1.4 9.2517 1.4 9.25165 1.4 9.25161C1.4 9.25157 1.4 9.25153 1.4 9.25149C1.4 9.25144 1.4 9.2514 1.4 9.25136C1.4 9.25132 1.4 9.25128 1.4 9.25124C1.4 9.25119 1.4 9.25115 1.4 9.25111C1.4 9.25107 1.4 9.25103 1.4 9.25099C1.4 9.25094 1.4 9.2509 1.4 9.25086C1.4 9.25082 1.4 9.25078 1.4 9.25074C1.4 9.2507 1.4 9.25066 1.4 9.25061C1.4 9.25057 1.4 9.25053 1.4 9.25049C1.4 9.25045 1.4 9.25041 1.4 9.25037C1.4 9.25033 1.4 9.25029 1.4 9.25025C1.4 9.2502 1.4 9.25016 1.4 9.25012C1.4 9.25008 1.4 9.25004 1.4 9.25H-1.4C-1.4 9.25004 -1.4 9.25008 -1.4 9.25012C-1.4 9.25016 -1.4 9.2502 -1.4 9.25025C-1.4 9.25029 -1.4 9.25033 -1.4 9.25037C-1.4 9.25041 -1.4 9.25045 -1.4 9.25049C-1.4 9.25053 -1.4 9.25057 -1.4 9.25061C-1.4 9.25066 -1.4 9.2507 -1.4 9.25074C-1.4 9.25078 -1.4 9.25082 -1.4 9.25086C-1.4 9.2509 -1.4 9.25094 -1.4 9.25099C-1.4 9.25103 -1.4 9.25107 -1.4 9.25111C-1.4 9.25115 -1.4 9.25119 -1.4 9.25124C-1.4 9.25128 -1.4 9.25132 -1.4 9.25136C-1.4 9.2514 -1.4 9.25144 -1.4 9.25149C-1.4 9.25153 -1.4 9.25157 -1.4 9.25161C-1.4 9.25165 -1.4 9.2517 -1.4 9.25174C-1.4 9.25178 -1.4 9.25182 -1.4 9.25186C-1.4 9.25191 -1.4 9.25195 -1.4 9.25199C-1.4 9.25203 -1.4 9.25208 -1.4 9.25212C-1.4 9.25216 -1.4 9.2522 -1.4 9.25225C-1.4 9.25229 -1.4 9.25233 -1.4 9.25237C-1.4 9.25242 -1.4 9.25246 -1.4 9.2525C-1.4 9.25254 -1.4 9.25259 -1.4 9.25263C-1.4 9.25267 -1.4 9.25272 -1.4 9.25276C-1.4 9.2528 -1.4 9.25284 -1.4 9.25289C-1.4 9.25293 -1.4 9.25297 -1.4 9.25302C-1.4 9.25306 -1.4 9.2531 -1.4 9.25315C-1.4 9.25319 -1.4 9.25323 -1.4 9.25327C-1.4 9.25332 -1.4 9.25336 -1.4 9.2534C-1.4 9.25345 -1.4 9.25349 -1.4 9.25353C-1.4 9.25358 -1.4 9.25362 -1.4 9.25366C-1.4 9.25371 -1.4 9.25375 -1.4 9.2538C-1.4 9.25384 -1.4 9.25388 -1.4 9.25393C-1.4 9.25397 -1.4 9.25401 -1.4 9.25406C-1.4 9.2541 -1.4 9.25415 -1.4 9.25419C-1.4 9.25423 -1.4 9.25428 -1.4 9.25432C-1.4 9.25437 -1.4 9.25441 -1.4 9.25445C-1.4 9.2545 -1.4 9.25454 -1.4 9.25459C-1.4 9.25463 -1.4 9.25468 -1.4 9.25472C-1.4 9.25476 -1.4 9.25481 -1.4 9.25485C-1.4 9.2549 -1.4 9.25494 -1.4 9.25499C-1.4 9.25503 -1.4 9.25508 -1.4 9.25512C-1.4 9.25517 -1.4 9.25521 -1.4 9.25526C-1.4 9.2553 -1.4 9.25535 -1.4 9.25539C-1.4 9.25543 -1.4 9.25548 -1.4 9.25552C-1.4 9.25557 -1.4 9.25561 -1.4 9.25566C-1.4 9.2557 -1.4 9.25575 -1.4 9.25579C-1.4 9.25584 -1.4 9.25589 -1.4 9.25593C-1.4 9.25598 -1.4 9.25602 -1.4 9.25607C-1.4 9.25611 -1.4 9.25616 -1.4 9.2562C-1.4 9.25625 -1.4 9.25629 -1.4 9.25634C-1.4 9.25638 -1.4 9.25643 -1.4 9.25648C-1.4 9.25652 -1.4 9.25657 -1.4 9.25661C-1.4 9.25666 -1.4 9.2567 -1.4 9.25675C-1.4 9.2568 -1.4 9.25684 -1.4 9.25689C-1.4 9.25693 -1.4 9.25698 -1.4 9.25703C-1.4 9.25707 -1.4 9.25712 -1.4 9.25716C-1.4 9.25721 -1.4 9.25726 -1.4 9.2573C-1.4 9.25735 -1.4 9.2574 -1.4 9.25744C-1.4 9.25749 -1.4 9.25753 -1.4 9.25758C-1.4 9.25763 -1.4 9.25767 -1.4 9.25772C-1.4 9.25777 -1.4 9.25781 -1.4 9.25786C-1.4 9.25791 -1.4 9.25795 -1.4 9.258C-1.4 9.25805 -1.4 9.25809 -1.4 9.25814C-1.4 9.25819 -1.4 9.25823 -1.4 9.25828C-1.4 9.25833 -1.4 9.25838 -1.4 9.25842C-1.4 9.25847 -1.4 9.25852 -1.4 9.25856C-1.4 9.25861 -1.4 9.25866 -1.4 9.25871C-1.4 9.25875 -1.4 9.2588 -1.4 9.25885C-1.4 9.25889 -1.4 9.25894 -1.4 9.25899C-1.4 9.25904 -1.4 9.25908 -1.4 9.25913C-1.4 9.25918 -1.4 9.25923 -1.4 9.25928C-1.4 9.25932 -1.4 9.25937 -1.4 9.25942C-1.4 9.25947 -1.4 9.25951 -1.4 9.25956C-1.4 9.25961 -1.4 9.25966 -1.4 9.25971C-1.4 9.25975 -1.4 9.2598 -1.4 9.25985C-1.4 9.2599 -1.4 9.25994 -1.4 9.25999C-1.4 9.26004 -1.4 9.26009 -1.4 9.26014C-1.4 9.26019 -1.4 9.26023 -1.4 9.26028C-1.4 9.26033 -1.4 9.26038 -1.4 9.26043C-1.4 9.26048 -1.4 9.26052 -1.4 9.26057C-1.4 9.26062 -1.4 9.26067 -1.4 9.26072C-1.4 9.26077 -1.4 9.26082 -1.4 9.26087C-1.4 9.26091 -1.4 9.26096 -1.4 9.26101C-1.4 9.26106 -1.4 9.26111 -1.4 9.26116C-1.4 9.26121 -1.4 9.26126 -1.4 9.2613C-1.4 9.26135 -1.4 9.2614 -1.4 9.26145C-1.4 9.2615 -1.4 9.26155 -1.4 9.2616C-1.4 9.26165 -1.4 9.2617 -1.4 9.26175C-1.4 9.2618 -1.4 9.26185 -1.4 9.2619C-1.4 9.26195 -1.4 9.262 -1.4 9.26204C-1.4 9.26209 -1.4 9.26214 -1.4 9.26219C-1.4 9.26224 -1.4 9.26229 -1.4 9.26234C-1.4 9.26239 -1.4 9.26244 -1.4 9.26249C-1.4 9.26254 -1.4 9.26259 -1.4 9.26264C-1.4 9.26269 -1.4 9.26274 -1.4 9.26279C-1.4 9.26284 -1.4 9.26289 -1.4 9.26294C-1.4 9.26299 -1.4 9.26304 -1.4 9.26309C-1.4 9.26314 -1.4 9.26319 -1.4 9.26324C-1.4 9.26329 -1.4 9.26334 -1.4 9.26339C-1.4 9.26344 -1.4 9.26349 -1.4 9.26355C-1.4 9.2636 -1.4 9.26365 -1.4 9.2637C-1.4 9.26375 -1.4 9.2638 -1.4 9.26385C-1.4 9.2639 -1.4 9.26395 -1.4 9.264C-1.4 9.26405 -1.4 9.2641 -1.4 9.26415C-1.4 9.2642 -1.4 9.26426 -1.4 9.26431C-1.4 9.26436 -1.4 9.26441 -1.4 9.26446C-1.4 9.26451 -1.4 9.26456 -1.4 9.26461C-1.4 9.26466 -1.4 9.26472 -1.4 9.26477C-1.4 9.26482 -1.4 9.26487 -1.4 9.26492C-1.4 9.26497 -1.4 9.26502 -1.4 9.26508C-1.4 9.26513 -1.4 9.26518 -1.4 9.26523C-1.4 9.26528 -1.4 9.26533 -1.4 9.26539C-1.4 9.26544 -1.4 9.26549 -1.4 9.26554C-1.4 9.26559 -1.4 9.26565 -1.4 9.2657C-1.4 9.26575 -1.4 9.2658 -1.4 9.26585C-1.4 9.2659 -1.4 9.26596 -1.4 9.26601C-1.4 9.26606 -1.4 9.26611 -1.4 9.26616C-1.4 9.26622 -1.4 9.26627 -1.4 9.26632C-1.4 9.26637 -1.4 9.26643 -1.4 9.26648C-1.4 9.26653 -1.4 9.26658 -1.4 9.26664C-1.4 9.26669 -1.4 9.26674 -1.4 9.26679C-1.4 9.26685 -1.4 9.2669 -1.4 9.26695C-1.4 9.267 -1.4 9.26706 -1.4 9.26711C-1.4 9.26716 -1.4 9.26722 -1.4 9.26727C-1.4 9.26732 -1.4 9.26737 -1.4 9.26743C-1.4 9.26748 -1.4 9.26753 -1.4 9.26759C-1.4 9.26764 -1.4 9.26769 -1.4 9.26775C-1.4 9.2678 -1.4 9.26785 -1.4 9.26791C-1.4 9.26796 -1.4 9.26801 -1.4 9.26807C-1.4 9.26812 -1.4 9.26817 -1.4 9.26823C-1.4 9.26828 -1.4 9.26833 -1.4 9.26839C-1.4 9.26844 -1.4 9.26849 -1.4 9.26855C-1.4 9.2686 -1.4 9.26866 -1.4 9.26871C-1.4 9.26876 -1.4 9.26882 -1.4 9.26887C-1.4 9.26892 -1.4 9.26898 -1.4 9.26903C-1.4 9.26909 -1.4 9.26914 -1.4 9.2692C-1.4 9.26925 -1.4 9.2693 -1.4 9.26936C-1.4 9.26941 -1.4 9.26947 -1.4 9.26952C-1.4 9.26958 -1.4 9.26963 -1.4 9.26968C-1.4 9.26974 -1.4 9.26979 -1.4 9.26985C-1.4 9.2699 -1.4 9.26996 -1.4 9.27001C-1.4 9.27007 -1.4 9.27012 -1.4 9.27017C-1.4 9.27023 -1.4 9.27028 -1.4 9.27034C-1.4 9.27039 -1.4 9.27045 -1.4 9.2705C-1.4 9.27056 -1.4 9.27061 -1.4 9.27067C-1.4 9.27072 -1.4 9.27078 -1.4 9.27083C-1.4 9.27089 -1.4 9.27094 -1.4 9.271C-1.4 9.27105 -1.4 9.27111 -1.4 9.27116C-1.4 9.27122 -1.4 9.27127 -1.4 9.27133C-1.4 9.27139 -1.4 9.27144 -1.4 9.2715C-1.4 9.27155 -1.4 9.27161 -1.4 9.27166C-1.4 9.27172 -1.4 9.27177 -1.4 9.27183C-1.4 9.27189 -1.4 9.27194 -1.4 9.272C-1.4 9.27205 -1.4 9.27211 -1.4 9.27217C-1.4 9.27222 -1.4 9.27228 -1.4 9.27233C-1.4 9.27239 -1.4 9.27244 -1.4 9.2725C-1.4 9.27256 -1.4 9.27261 -1.4 9.27267C-1.4 9.27273 -1.4 9.27278 -1.4 9.27284C-1.4 9.27289 -1.4 9.27295 -1.4 9.27301C-1.4 9.27306 -1.4 9.27312 -1.4 9.27318C-1.4 9.27323 -1.4 9.27329 -1.4 9.27335C-1.4 9.2734 -1.4 9.27346 -1.4 9.27352C-1.4 9.27357 -1.4 9.27363 -1.4 9.27369C-1.4 9.27374 -1.4 9.2738 -1.4 9.27386C-1.4 9.27391 -1.4 9.27397 -1.4 9.27403C-1.4 9.27408 -1.4 9.27414 -1.4 9.2742C-1.4 9.27426 -1.4 9.27431 -1.4 9.27437C-1.4 9.27443 -1.4 9.27448 -1.4 9.27454C-1.4 9.2746 -1.4 9.27466 -1.4 9.27471C-1.4 9.27477 -1.4 9.27483 -1.4 9.27489C-1.4 9.27494 -1.4 9.275 -1.4 9.27506C-1.4 9.27512 -1.4 9.27517 -1.4 9.27523C-1.4 9.27529 -1.4 9.27535 -1.4 9.2754C-1.4 9.27546 -1.4 9.27552 -1.4 9.27558C-1.4 9.27564 -1.4 9.27569 -1.4 9.27575C-1.4 9.27581 -1.4 9.27587 -1.4 9.27593C-1.4 9.27598 -1.4 9.27604 -1.4 9.2761C-1.4 9.27616 -1.4 9.27622 -1.4 9.27627C-1.4 9.27633 -1.4 9.27639 -1.4 9.27645C-1.4 9.27651 -1.4 9.27657 -1.4 9.27662C-1.4 9.27668 -1.4 9.27674 -1.4 9.2768C-1.4 9.27686 -1.4 9.27692 -1.4 9.27698C-1.4 9.27703 -1.4 9.27709 -1.4 9.27715C-1.4 9.27721 -1.4 9.27727 -1.4 9.27733C-1.4 9.27739 -1.4 9.27745 -1.4 9.27751C-1.4 9.27757 -1.4 9.27762 -1.4 9.27768C-1.4 9.27774 -1.4 9.2778 -1.4 9.27786C-1.4 9.27792 -1.4 9.27798 -1.4 9.27804C-1.4 9.2781 -1.4 9.27816 -1.4 9.27822C-1.4 9.27828 -1.4 9.27833 -1.4 9.27839C-1.4 9.27845 -1.4 9.27851 -1.4 9.27857C-1.4 9.27863 -1.4 9.27869 -1.4 9.27875C-1.4 9.27881 -1.4 9.27887 -1.4 9.27893C-1.4 9.27899 -1.4 9.27905 -1.4 9.27911C-1.4 9.27917 -1.4 9.27923 -1.4 9.27929C-1.4 9.27935 -1.4 9.27941 -1.4 9.27947C-1.4 9.27953 -1.4 9.27959 -1.4 9.27965C-1.4 9.27971 -1.4 9.27977 -1.4 9.27983C-1.4 9.27989 -1.4 9.27995 -1.4 9.28001C-1.4 9.28007 -1.4 9.28013 -1.4 9.28019C-1.4 9.28025 -1.4 9.28031 -1.4 9.28037C-1.4 9.28043 -1.4 9.2805 -1.4 9.28056C-1.4 9.28062 -1.4 9.28068 -1.4 9.28074C-1.4 9.2808 -1.4 9.28086 -1.4 9.28092C-1.4 9.28098 -1.4 9.28104 -1.4 9.2811C-1.4 9.28116 -1.4 9.28123 -1.4 9.28129C-1.4 9.28135 -1.4 9.28141 -1.4 9.28147C-1.4 9.28153 -1.4 9.28159 -1.4 9.28165C-1.4 9.28171 -1.4 9.28178 -1.4 9.28184C-1.4 9.2819 -1.4 9.28196 -1.4 9.28202C-1.4 9.28208 -1.4 9.28214 -1.4 9.28221C-1.4 9.28227 -1.4 9.28233 -1.4 9.28239C-1.4 9.28245 -1.4 9.28251 -1.4 9.28258C-1.4 9.28264 -1.4 9.2827 -1.4 9.28276C-1.4 9.28282 -1.4 9.28289 -1.4 9.28295C-1.4 9.28301 -1.4 9.28307 -1.4 9.28313C-1.4 9.2832 -1.4 9.28326 -1.4 9.28332C-1.4 9.28338 -1.4 9.28344 -1.4 9.28351C-1.4 9.28357 -1.4 9.28363 -1.4 9.28369C-1.4 9.28376 -1.4 9.28382 -1.4 9.28388C-1.4 9.28394 -1.4 9.28401 -1.4 9.28407C-1.4 9.28413 -1.4 9.28419 -1.4 9.28426C-1.4 9.28432 -1.4 9.28438 -1.4 9.28444C-1.4 9.28451 -1.4 9.28457 -1.4 9.28463C-1.4 9.28469 -1.4 9.28476 -1.4 9.28482C-1.4 9.28488 -1.4 9.28495 -1.4 9.28501C-1.4 9.28507 -1.4 9.28514 -1.4 9.2852C-1.4 9.28526 -1.4 9.28533 -1.4 9.28539C-1.4 9.28545 -1.4 9.28551 -1.4 9.28558C-1.4 9.28564 -1.4 9.2857 -1.4 9.28577C-1.4 9.28583 -1.4 9.2859 -1.4 9.28596C-1.4 9.28602 -1.4 9.28609 -1.4 9.28615C-1.4 9.28621 -1.4 9.28628 -1.4 9.28634C-1.4 9.2864 -1.4 9.28647 -1.4 9.28653C-1.4 9.2866 -1.4 9.28666 -1.4 9.28672C-1.4 9.28679 -1.4 9.28685 -1.4 9.28692C-1.4 9.28698 -1.4 9.28704 -1.4 9.28711C-1.4 9.28717 -1.4 9.28724 -1.4 9.2873C-1.4 9.28736 -1.4 9.28743 -1.4 9.28749C-1.4 9.28756 -1.4 9.28762 -1.4 9.28769C-1.4 9.28775 -1.4 9.28782 -1.4 9.28788C-1.4 9.28794 -1.4 9.28801 -1.4 9.28807C-1.4 9.28814 -1.4 9.2882 -1.4 9.28827C-1.4 9.28833 -1.4 9.2884 -1.4 9.28846C-1.4 9.28853 -1.4 9.28859 -1.4 9.28866C-1.4 9.28872 -1.4 9.28879 -1.4 9.28885C-1.4 9.28892 -1.4 9.28898 -1.4 9.28905C-1.4 9.28911 -1.4 9.28918 -1.4 9.28924C-1.4 9.28931 -1.4 9.28937 -1.4 9.28944C-1.4 9.2895 -1.4 9.28957 -1.4 9.28963C-1.4 9.2897 -1.4 9.28977 -1.4 9.28983C-1.4 9.2899 -1.4 9.28996 -1.4 9.29003C-1.4 9.29009 -1.4 9.29016 -1.4 9.29022C-1.4 9.29029 -1.4 9.29036 -1.4 9.29042C-1.4 9.29049 -1.4 9.29055 -1.4 9.29062C-1.4 9.29069 -1.4 9.29075 -1.4 9.29082C-1.4 9.29088 -1.4 9.29095 -1.4 9.29102C-1.4 9.29108 -1.4 9.29115 -1.4 9.29121C-1.4 9.29128 -1.4 9.29135 -1.4 9.29141C-1.4 9.29148 -1.4 9.29155 -1.4 9.29161C-1.4 9.29168 -1.4 9.29175 -1.4 9.29181C-1.4 9.29188 -1.4 9.29194 -1.4 9.29201C-1.4 9.29208 -1.4 9.29214 -1.4 9.29221C-1.4 9.29228 -1.4 9.29235 -1.4 9.29241C-1.4 9.29248 -1.4 9.29255 -1.4 9.29261C-1.4 9.29268 -1.4 9.29275 -1.4 9.29281C-1.4 9.29288 -1.4 9.29295 -1.4 9.29301C-1.4 9.29308 -1.4 9.29315 -1.4 9.29322C-1.4 9.29328 -1.4 9.29335 -1.4 9.29342C-1.4 9.29348 -1.4 9.29355 -1.4 9.29362C-1.4 9.29369 -1.4 9.29375 -1.4 9.29382C-1.4 9.29389 -1.4 9.29396 -1.4 9.29402C-1.4 9.29409 -1.4 9.29416 -1.4 9.29423C-1.4 9.2943 -1.4 9.29436 -1.4 9.29443C-1.4 9.2945 -1.4 9.29457 -1.4 9.29463C-1.4 9.2947 -1.4 9.29477 -1.4 9.29484C-1.4 9.29491 -1.4 9.29497 -1.4 9.29504C-1.4 9.29511 -1.4 9.29518 -1.4 9.29525C-1.4 9.29531 -1.4 9.29538 -1.4 9.29545C-1.4 9.29552 -1.4 9.29559 -1.4 9.29566C-1.4 9.29572 -1.4 9.29579 -1.4 9.29586C-1.4 9.29593 -1.4 9.296 -1.4 9.29607C-1.4 9.29614 -1.4 9.2962 -1.4 9.29627C-1.4 9.29634 -1.4 9.29641 -1.4 9.29648C-1.4 9.29655 -1.4 9.29662 -1.4 9.29669C-1.4 9.29676 -1.4 9.29682 -1.4 9.29689C-1.4 9.29696 -1.4 9.29703 -1.4 9.2971C-1.4 9.29717 -1.4 9.29724 -1.4 9.29731C-1.4 9.29738 -1.4 9.29745 -1.4 9.29752C-1.4 9.29759 -1.4 9.29765 -1.4 9.29772C-1.4 9.29779 -1.4 9.29786 -1.4 9.29793C-1.4 9.298 -1.4 9.29807 -1.4 9.29814C-1.4 9.29821 -1.4 9.29828 -1.4 9.29835C-1.4 9.29842 -1.4 9.29849 -1.4 9.29856C-1.4 9.29863 -1.4 9.2987 -1.4 9.29877C-1.4 9.29884 -1.4 9.29891 -1.4 9.29898C-1.4 9.29905 -1.4 9.29912 -1.4 9.29919C-1.4 9.29926 -1.4 9.29933 -1.4 9.2994C-1.4 9.29947 -1.4 9.29954 -1.4 9.29961C-1.4 9.29968 -1.4 9.29975 -1.4 9.29982C-1.4 9.29989 -1.4 9.29996 -1.4 9.30003C-1.4 9.3001 -1.4 9.30017 -1.4 9.30024C-1.4 9.30031 -1.4 9.30038 -1.4 9.30046C-1.4 9.30053 -1.4 9.3006 -1.4 9.30067C-1.4 9.30074 -1.4 9.30081 -1.4 9.30088C-1.4 9.30095 -1.4 9.30102 -1.4 9.30109C-1.4 9.30116 -1.4 9.30124 -1.4 9.30131C-1.4 9.30138 -1.4 9.30145 -1.4 9.30152C-1.4 9.30159 -1.4 9.30166 -1.4 9.30173C-1.4 9.3018 -1.4 9.30188 -1.4 9.30195C-1.4 9.30202 -1.4 9.30209 -1.4 9.30216C-1.4 9.30223 -1.4 9.30231 -1.4 9.30238C-1.4 9.30245 -1.4 9.30252 -1.4 9.30259C-1.4 9.30266 -1.4 9.30273 -1.4 9.30281C-1.4 9.30288 -1.4 9.30295 -1.4 9.30302C-1.4 9.30309 -1.4 9.30317 -1.4 9.30324C-1.4 9.30331 -1.4 9.30338 -1.4 9.30345C-1.4 9.30353 -1.4 9.3036 -1.4 9.30367C-1.4 9.30374 -1.4 9.30381 -1.4 9.30389C-1.4 9.30396 -1.4 9.30403 -1.4 9.3041C-1.4 9.30418 -1.4 9.30425 -1.4 9.30432C-1.4 9.30439 -1.4 9.30447 -1.4 9.30454C-1.4 9.30461 -1.4 9.30468 -1.4 9.30476C-1.4 9.30483 -1.4 9.3049 -1.4 9.30497C-1.4 9.30505 -1.4 9.30512 -1.4 9.30519C-1.4 9.30527 -1.4 9.30534 -1.4 9.30541C-1.4 9.30548 -1.4 9.30556 -1.4 9.30563C-1.4 9.3057 -1.4 9.30578 -1.4 9.30585C-1.4 9.30592 -1.4 9.306 -1.4 9.30607C-1.4 9.30614 -1.4 9.30622 -1.4 9.30629C-1.4 9.30636 -1.4 9.30644 -1.4 9.30651C-1.4 9.30658 -1.4 9.30666 -1.4 9.30673C-1.4 9.3068 -1.4 9.30688 -1.4 9.30695C-1.4 9.30703 -1.4 9.3071 -1.4 9.30717C-1.4 9.30725 -1.4 9.30732 -1.4 9.30739C-1.4 9.30747 -1.4 9.30754 -1.4 9.30762C-1.4 9.30769 -1.4 9.30776 -1.4 9.30784C-1.4 9.30791 -1.4 9.30799 -1.4 9.30806C-1.4 9.30814 -1.4 9.30821 -1.4 9.30828C-1.4 9.30836 -1.4 9.30843 -1.4 9.30851C-1.4 9.30858 -1.4 9.30865 -1.4 9.30873C-1.4 9.3088 -1.4 9.30888 -1.4 9.30895C-1.4 9.30903 -1.4 9.3091 -1.4 9.30918C-1.4 9.30925 -1.4 9.30933 -1.4 9.3094C-1.4 9.30948 -1.4 9.30955 -1.4 9.30963C-1.4 9.3097 -1.4 9.30978 -1.4 9.30985C-1.4 9.30993 -1.4 9.31 -1.4 9.31008C-1.4 9.31015 -1.4 9.31023 -1.4 9.3103C-1.4 9.31038 -1.4 9.31045 -1.4 9.31053C-1.4 9.3106 -1.4 9.31068 -1.4 9.31075C-1.4 9.31083 -1.4 9.3109 -1.4 9.31098C-1.4 9.31105 -1.4 9.31113 -1.4 9.3112C-1.4 9.31128 -1.4 9.31136 -1.4 9.31143C-1.4 9.31151 -1.4 9.31158 -1.4 9.31166C-1.4 9.31174 -1.4 9.31181 -1.4 9.31189C-1.4 9.31196 -1.4 9.31204 -1.4 9.31211C-1.4 9.31219 -1.4 9.31227 -1.4 9.31234C-1.4 9.31242 -1.4 9.31249 -1.4 9.31257C-1.4 9.31265 -1.4 9.31272 -1.4 9.3128C-1.4 9.31287 -1.4 9.31295 -1.4 9.31303C-1.4 9.3131 -1.4 9.31318 -1.4 9.31326C-1.4 9.31333 -1.4 9.31341 -1.4 9.31349C-1.4 9.31356 -1.4 9.31364 -1.4 9.31372C-1.4 9.31379 -1.4 9.31387 -1.4 9.31395C-1.4 9.31402 -1.4 9.3141 -1.4 9.31418C-1.4 9.31425 -1.4 9.31433 -1.4 9.31441C-1.4 9.31448 -1.4 9.31456 -1.4 9.31464C-1.4 9.31472 -1.4 9.31479 -1.4 9.31487C-1.4 9.31495 -1.4 9.31502 -1.4 9.3151C-1.4 9.31518 -1.4 9.31526 -1.4 9.31533C-1.4 9.31541 -1.4 9.31549 -1.4 9.31557C-1.4 9.31564 -1.4 9.31572 -1.4 9.3158C-1.4 9.31588 -1.4 9.31595 -1.4 9.31603C-1.4 9.31611 -1.4 9.31619 -1.4 9.31626C-1.4 9.31634 -1.4 9.31642 -1.4 9.3165C-1.4 9.31658 -1.4 9.31665 -1.4 9.31673C-1.4 9.31681 -1.4 9.31689 -1.4 9.31697C-1.4 9.31704 -1.4 9.31712 -1.4 9.3172C-1.4 9.31728 -1.4 9.31736 -1.4 9.31743C-1.4 9.31751 -1.4 9.31759 -1.4 9.31767C-1.4 9.31775 -1.4 9.31783 -1.4 9.3179C-1.4 9.31798 -1.4 9.31806 -1.4 9.31814C-1.4 9.31822 -1.4 9.3183 -1.4 9.31838C-1.4 9.31845 -1.4 9.31853 -1.4 9.31861C-1.4 9.31869 -1.4 9.31877 -1.4 9.31885C-1.4 9.31893 -1.4 9.31901 -1.4 9.31908C-1.4 9.31916 -1.4 9.31924 -1.4 9.31932C-1.4 9.3194 -1.4 9.31948 -1.4 9.31956C-1.4 9.31964 -1.4 9.31972 -1.4 9.3198C-1.4 9.31987 -1.4 9.31995 -1.4 9.32003C-1.4 9.32011 -1.4 9.32019 -1.4 9.32027C-1.4 9.32035 -1.4 9.32043 -1.4 9.32051C-1.4 9.32059 -1.4 9.32067 -1.4 9.32075C-1.4 9.32083 -1.4 9.32091 -1.4 9.32099C-1.4 9.32107 -1.4 9.32115 -1.4 9.32123C-1.4 9.32131 -1.4 9.32139 -1.4 9.32147C-1.4 9.32155 -1.4 9.32163 -1.4 9.32171C-1.4 9.32179 -1.4 9.32187 -1.4 9.32195C-1.4 9.32203 -1.4 9.32211 -1.4 9.32219C-1.4 9.32227 -1.4 9.32235 -1.4 9.32243C-1.4 9.32251 -1.4 9.32259 -1.4 9.32267C-1.4 9.32275 -1.4 9.32283 -1.4 9.32291C-1.4 9.32299 -1.4 9.32307 -1.4 9.32315C-1.4 9.32323 -1.4 9.32331 -1.4 9.32339C-1.4 9.32348 -1.4 9.32356 -1.4 9.32364C-1.4 9.32372 -1.4 9.3238 -1.4 9.32388C-1.4 9.32396 -1.4 9.32404 -1.4 9.32412C-1.4 9.3242 -1.4 9.32429 -1.4 9.32437C-1.4 9.32445 -1.4 9.32453 -1.4 9.32461C-1.4 9.32469 -1.4 9.32477 -1.4 9.32485C-1.4 9.32493 -1.4 9.32502 -1.4 9.3251C-1.4 9.32518 -1.4 9.32526 -1.4 9.32534C-1.4 9.32542 -1.4 9.32551 -1.4 9.32559C-1.4 9.32567 -1.4 9.32575 -1.4 9.32583C-1.4 9.32591 -1.4 9.326 -1.4 9.32608C-1.4 9.32616 -1.4 9.32624 -1.4 9.32632C-1.4 9.3264 -1.4 9.32649 -1.4 9.32657C-1.4 9.32665 -1.4 9.32673 -1.4 9.32681C-1.4 9.3269 -1.4 9.32698 -1.4 9.32706C-1.4 9.32714 -1.4 9.32723 -1.4 9.32731C-1.4 9.32739 -1.4 9.32747 -1.4 9.32755C-1.4 9.32764 -1.4 9.32772 -1.4 9.3278C-1.4 9.32788 -1.4 9.32797 -1.4 9.32805C-1.4 9.32813 -1.4 9.32822 -1.4 9.3283C-1.4 9.32838 -1.4 9.32846 -1.4 9.32855C-1.4 9.32863 -1.4 9.32871 -1.4 9.3288C-1.4 9.32888 -1.4 9.32896 -1.4 9.32904C-1.4 9.32913 -1.4 9.32921 -1.4 9.32929C-1.4 9.32938 -1.4 9.32946 -1.4 9.32954C-1.4 9.32963 -1.4 9.32971 -1.4 9.32979C-1.4 9.32988 -1.4 9.32996 -1.4 9.33004C-1.4 9.33013 -1.4 9.33021 -1.4 9.33029C-1.4 9.33038 -1.4 9.33046 -1.4 9.33054C-1.4 9.33063 -1.4 9.33071 -1.4 9.33079C-1.4 9.33088 -1.4 9.33096 -1.4 9.33105C-1.4 9.33113 -1.4 9.33121 -1.4 9.3313C-1.4 9.33138 -1.4 9.33146 -1.4 9.33155C-1.4 9.33163 -1.4 9.33172 -1.4 9.3318C-1.4 9.33189 -1.4 9.33197 -1.4 9.33205C-1.4 9.33214 -1.4 9.33222 -1.4 9.33231C-1.4 9.33239 -1.4 9.33247 -1.4 9.33256C-1.4 9.33264 -1.4 9.33273 -1.4 9.33281C-1.4 9.3329 -1.4 9.33298 -1.4 9.33307C-1.4 9.33315 -1.4 9.33324 -1.4 9.33332C-1.4 9.33341 -1.4 9.33349 -1.4 9.33357C-1.4 9.33366 -1.4 9.33374 -1.4 9.33383C-1.4 9.33391 -1.4 9.334 -1.4 9.33408C-1.4 9.33417 -1.4 9.33425 -1.4 9.33434C-1.4 9.33442 -1.4 9.33451 -1.4 9.33459C-1.4 9.33468 -1.4 9.33477 -1.4 9.33485C-1.4 9.33494 -1.4 9.33502 -1.4 9.33511C-1.4 9.33519 -1.4 9.33528 -1.4 9.33536C-1.4 9.33545 -1.4 9.33553 -1.4 9.33562C-1.4 9.3357 -1.4 9.33579 -1.4 9.33588C-1.4 9.33596 -1.4 9.33605 -1.4 9.33613C-1.4 9.33622 -1.4 9.33631 -1.4 9.33639C-1.4 9.33648 -1.4 9.33656 -1.4 9.33665C-1.4 9.33673 -1.4 9.33682 -1.4 9.33691C-1.4 9.33699 -1.4 9.33708 -1.4 9.33717C-1.4 9.33725 -1.4 9.33734 -1.4 9.33742C-1.4 9.33751 -1.4 9.3376 -1.4 9.33768C-1.4 9.33777 -1.4 9.33786 -1.4 9.33794C-1.4 9.33803 -1.4 9.33812 -1.4 9.3382C-1.4 9.33829 -1.4 9.33838 -1.4 9.33846C-1.4 9.33855 -1.4 9.33864 -1.4 9.33872C-1.4 9.33881 -1.4 9.3389 -1.4 9.33898C-1.4 9.33907 -1.4 9.33916 -1.4 9.33924C-1.4 9.33933 -1.4 9.33942 -1.4 9.3395C-1.4 9.33959 -1.4 9.33968 -1.4 9.33977C-1.4 9.33985 -1.4 9.33994 -1.4 9.34003C-1.4 9.34011 -1.4 9.3402 -1.4 9.34029C-1.4 9.34038 -1.4 9.34046 -1.4 9.34055C-1.4 9.34064 -1.4 9.34073 -1.4 9.34081C-1.4 9.3409 -1.4 9.34099 -1.4 9.34108C-1.4 9.34117 -1.4 9.34125 -1.4 9.34134C-1.4 9.34143 -1.4 9.34152 -1.4 9.3416C-1.4 9.34169 -1.4 9.34178 -1.4 9.34187C-1.4 9.34196 -1.4 9.34204 -1.4 9.34213C-1.4 9.34222 -1.4 9.34231 -1.4 9.3424C-1.4 9.34248 -1.4 9.34257 -1.4 9.34266C-1.4 9.34275 -1.4 9.34284 -1.4 9.34293C-1.4 9.34301 -1.4 9.3431 -1.4 9.34319C-1.4 9.34328 -1.4 9.34337 -1.4 9.34346C-1.4 9.34354 -1.4 9.34363 -1.4 9.34372C-1.4 9.34381 -1.4 9.3439 -1.4 9.34399C-1.4 9.34408 -1.4 9.34417 -1.4 9.34426C-1.4 9.34434 -1.4 9.34443 -1.4 9.34452C-1.4 9.34461 -1.4 9.3447 -1.4 9.34479C-1.4 9.34488 -1.4 9.34497 -1.4 9.34506C-1.4 9.34515 -1.4 9.34523 -1.4 9.34532C-1.4 9.34541 -1.4 9.3455 -1.4 9.34559C-1.4 9.34568 -1.4 9.34577 -1.4 9.34586C-1.4 9.34595 -1.4 9.34604 -1.4 9.34613C-1.4 9.34622 -1.4 9.34631 -1.4 9.3464C-1.4 9.34649 -1.4 9.34658 -1.4 9.34667C-1.4 9.34676 -1.4 9.34685 -1.4 9.34694C-1.4 9.34703 -1.4 9.34712 -1.4 9.34721C-1.4 9.3473 -1.4 9.34739 -1.4 9.34748C-1.4 9.34757 -1.4 9.34766 -1.4 9.34775C-1.4 9.34784 -1.4 9.34793 -1.4 9.34802C-1.4 9.34811 -1.4 9.3482 -1.4 9.34829C-1.4 9.34838 -1.4 9.34847 -1.4 9.34856C-1.4 9.34865 -1.4 9.34874 -1.4 9.34883C-1.4 9.34892 -1.4 9.34901 -1.4 9.3491C-1.4 9.34919 -1.4 9.34928 -1.4 9.34937C-1.4 9.34947 -1.4 9.34956 -1.4 9.34965C-1.4 9.34974 -1.4 9.34983 -1.4 9.34992C-1.4 9.35001 -1.4 9.3501 -1.4 9.35019C-1.4 9.35028 -1.4 9.35038 -1.4 9.35047C-1.4 9.35056 -1.4 9.35065 -1.4 9.35074C-1.4 9.35083 -1.4 9.35092 -1.4 9.35101C-1.4 9.3511 -1.4 9.3512 -1.4 9.35129C-1.4 9.35138 -1.4 9.35147 -1.4 9.35156H1.4ZM1.4 9.25V1.75H-1.4V9.25H1.4ZM1.4 1.75C1.4 1.64816 1.42009 1.59106 1.50557 1.50557L-0.474325 -0.474325C-1.07634 0.127688 -1.4 0.893509 -1.4 1.75H1.4ZM1.50557 1.50557C1.59106 1.42009 1.64816 1.4 1.75 1.4V-1.4C0.89351 -1.4 0.127688 -1.07634 -0.474325 -0.474325L1.50557 1.50557ZM1.75 1.4H4.25V-1.4H1.75V1.4ZM4.25 1.4C4.35184 1.4 4.40894 1.42009 4.49443 1.50557L6.47432 -0.474325C5.87231 -1.07634 5.10649 -1.4 4.25 -1.4V1.4ZM4.49443 1.50557C4.57991 1.59106 4.6 1.64816 4.6 1.75H7.4C7.4 0.893509 7.07634 0.127688 6.47432 -0.474325L4.49443 1.50557ZM4.6 1.75V2H7.4V1.75H4.6ZM6 3.4H10.25V0.599999H6V3.4ZM10.25 3.4C10.3518 3.4 10.4089 3.42009 10.4944 3.50557L12.4743 1.52567C11.8723 0.923662 11.1065 0.599999 10.25 0.599999V3.4ZM10.4944 3.50557C10.5799 3.59106 10.6 3.64816 10.6 3.75H13.4C13.4 2.89351 13.0763 2.12769 12.4743 1.52567L10.4944 3.50557Z" fill="#A3A3A3"/>
</svg>
