<svg width="10" height="10" viewBox="0 0 10 10" fill="none" xmlns="http://www.w3.org/2000/svg">
<path d="M3.59375 2.58594C3.98438 2.19531 4.45312 2 5 2C5.54688 2 6.01562 2.19531 6.40625 2.58594C6.79688 2.97656 6.99219 3.44531 6.99219 3.99219C6.99219 4.41406 6.74219 4.85156 6.24219 5.30469C5.74219 5.74219 5.49219 6.14062 5.49219 6.5H4.50781C4.50781 6.14062 4.58594 5.83594 4.74219 5.58594C4.89844 5.32031 5.07031 5.13281 5.25781 5.02344C5.44531 4.89844 5.61719 4.75 5.77344 4.57812C5.92969 4.40625 6.00781 4.21094 6.00781 3.99219C6.00781 3.72656 5.90625 3.5 5.70312 3.3125C5.5 3.10938 5.26562 3.00781 5 3.00781C4.73438 3.00781 4.5 3.10938 4.29688 3.3125C4.09375 3.5 3.99219 3.72656 3.99219 3.99219H3.00781C3.00781 3.44531 3.20312 2.97656 3.59375 2.58594ZM2.16406 7.83594C2.96094 8.61719 3.90625 9.00781 5 9.00781C6.09375 9.00781 7.03125 8.61719 7.8125 7.83594C8.60938 7.03906 9.00781 6.09375 9.00781 5C9.00781 3.90625 8.60938 2.96875 7.8125 2.1875C7.03125 1.39062 6.09375 0.992188 5 0.992188C3.90625 0.992188 2.96094 1.39062 2.16406 2.1875C1.38281 2.96875 0.992188 3.90625 0.992188 5C0.992188 6.09375 1.38281 7.03906 2.16406 7.83594ZM1.46094 1.48438C2.44531 0.5 3.625 0.0078125 5 0.0078125C6.375 0.0078125 7.54688 0.5 8.51562 1.48438C9.5 2.45312 9.99219 3.625 9.99219 5C9.99219 6.375 9.5 7.55469 8.51562 8.53906C7.54688 9.50781 6.375 9.99219 5 9.99219C3.625 9.99219 2.44531 9.50781 1.46094 8.53906C0.492188 7.55469 0.0078125 6.375 0.0078125 5C0.0078125 3.625 0.492188 2.45312 1.46094 1.48438ZM4.50781 8V6.99219H5.49219V8H4.50781Z" fill="#A3A3A3"/>
</svg>
