<svg width="21" height="21" viewBox="0 0 21 21" fill="none" xmlns="http://www.w3.org/2000/svg">
<path d="M5.32701 1.52232C6.90737 0.602678 8.63058 0.142856 10.4967 0.142856C12.3627 0.142856 14.0815 0.602678 15.6529 1.52232C17.2333 2.44196 18.4833 3.69196 19.4029 5.27232C20.3225 6.84375 20.7824 8.5625 20.7824 10.4286C20.7824 12.2946 20.3225 14.0179 19.4029 15.5982C18.4833 17.1696 17.2333 18.4152 15.6529 19.3348C14.0815 20.2545 12.3627 20.7143 10.4967 20.7143C8.63058 20.7143 6.90737 20.2545 5.32701 19.3348C3.75558 18.4152 2.51004 17.1696 1.5904 15.5982C0.670759 14.0179 0.210938 12.2946 0.210938 10.4286C0.210938 8.5625 0.670759 6.84375 1.5904 5.27232C2.51004 3.69196 3.75558 2.44196 5.32701 1.52232ZM14.1663 7.12053C14.1484 7.12946 14.1038 7.17411 14.0324 7.25446C13.9699 7.32589 13.9118 7.36607 13.8583 7.375C13.8761 7.375 13.894 7.35268 13.9118 7.30803C13.9386 7.26339 13.9609 7.21429 13.9788 7.16071C14.0056 7.10714 14.0234 7.07589 14.0324 7.06696C14.0859 7.00446 14.1842 6.9375 14.327 6.86607C14.452 6.8125 14.6842 6.75893 15.0234 6.70536C15.327 6.63393 15.5547 6.68303 15.7065 6.85268C15.6886 6.83482 15.7288 6.77679 15.827 6.67857C15.9342 6.58036 16.0011 6.52679 16.0279 6.51786C16.0547 6.5 16.1217 6.48214 16.2288 6.46428C16.3359 6.4375 16.4029 6.40178 16.4297 6.35714L16.4565 6.0625C16.3493 6.07143 16.269 6.04018 16.2154 5.96875C16.1708 5.89732 16.144 5.80357 16.135 5.6875C16.135 5.70536 16.1083 5.74107 16.0547 5.79464C16.0547 5.73214 16.0324 5.69643 15.9877 5.6875C15.952 5.67857 15.9029 5.68303 15.8404 5.70089C15.7779 5.71875 15.7377 5.72321 15.7199 5.71428C15.6306 5.6875 15.5636 5.65625 15.519 5.62053C15.4743 5.57589 15.4386 5.5 15.4118 5.39286C15.385 5.28571 15.3672 5.21875 15.3583 5.19196C15.3404 5.14732 15.2958 5.10268 15.2243 5.05803C15.1618 5.00446 15.1217 4.95536 15.1038 4.91071C15.0949 4.89286 15.0815 4.87053 15.0636 4.84375C15.0547 4.80803 15.0413 4.77678 15.0234 4.75C15.0145 4.72321 14.9967 4.70089 14.9699 4.68303C14.952 4.65625 14.9297 4.64286 14.9029 4.64286C14.8761 4.64286 14.8449 4.66518 14.8092 4.70982C14.7734 4.75446 14.7377 4.79911 14.702 4.84375C14.6752 4.88839 14.6574 4.91071 14.6484 4.91071C14.6217 4.89286 14.5949 4.88839 14.5681 4.89732C14.5413 4.89732 14.519 4.90179 14.5011 4.91071C14.4922 4.91071 14.4743 4.92411 14.4475 4.95089C14.4208 4.96875 14.3984 4.98214 14.3806 4.99107C14.3538 5.00893 14.3136 5.02232 14.26 5.03125C14.2154 5.04018 14.1797 5.04911 14.1529 5.05803C14.2868 5.01339 14.2824 4.96429 14.1395 4.91071C14.0502 4.875 13.9788 4.86161 13.9252 4.87053C14.0056 4.83482 14.0368 4.78125 14.019 4.70982C14.01 4.63839 13.9743 4.57589 13.9118 4.52232H13.9788C13.9699 4.48661 13.9297 4.45089 13.8583 4.41518C13.7958 4.37053 13.7199 4.33036 13.6306 4.29464C13.5413 4.25893 13.4833 4.23214 13.4565 4.21428C13.385 4.16964 13.2333 4.12946 13.0011 4.09375C12.769 4.04911 12.6217 4.04464 12.5592 4.08036C12.5145 4.13393 12.4922 4.18303 12.4922 4.22768C12.5011 4.26339 12.519 4.32589 12.5458 4.41518C12.5815 4.49553 12.5993 4.54911 12.5993 4.57589C12.6083 4.62946 12.5815 4.6875 12.519 4.75C12.4654 4.8125 12.4386 4.86607 12.4386 4.91071C12.4386 4.97321 12.5011 5.04464 12.6261 5.125C12.7511 5.19643 12.7958 5.29018 12.76 5.40625C12.7333 5.47768 12.6618 5.54911 12.5458 5.62053C12.4297 5.69196 12.3583 5.74553 12.3315 5.78125C12.2868 5.85268 12.2779 5.9375 12.3047 6.03571C12.3404 6.125 12.3895 6.19643 12.452 6.25C12.4699 6.26786 12.4743 6.28571 12.4654 6.30357C12.4654 6.32143 12.452 6.34375 12.4252 6.37053C12.3984 6.38839 12.3717 6.40625 12.3449 6.42411C12.327 6.43304 12.3002 6.44643 12.2645 6.46428L12.2243 6.49107C12.1261 6.53571 12.0324 6.50893 11.9431 6.41071C11.8627 6.3125 11.8047 6.19643 11.769 6.0625C11.7065 5.83928 11.635 5.70536 11.5547 5.66071C11.3493 5.58929 11.2199 5.59375 11.1663 5.67411C11.1217 5.55804 10.9386 5.44196 10.6172 5.32589C10.394 5.24553 10.135 5.22768 9.8404 5.27232C9.89397 5.26339 9.89397 5.19643 9.8404 5.07143C9.7779 4.9375 9.69308 4.88393 9.58594 4.91071C9.61272 4.85714 9.63058 4.78125 9.63951 4.68303C9.64844 4.57589 9.6529 4.51339 9.6529 4.49553C9.67969 4.37946 9.73326 4.27678 9.81362 4.1875C9.82255 4.17857 9.8538 4.14286 9.90737 4.08036C9.96094 4.00893 10.0011 3.94643 10.0279 3.89286C10.0636 3.83929 10.0681 3.8125 10.0413 3.8125C10.3538 3.84821 10.577 3.79911 10.7109 3.66518C10.7556 3.62053 10.8047 3.54464 10.8583 3.4375C10.9208 3.33036 10.9699 3.25446 11.0056 3.20982C11.0859 3.15625 11.1484 3.13393 11.1931 3.14286C11.2377 3.14286 11.3002 3.16518 11.3806 3.20982C11.4699 3.25446 11.5368 3.27678 11.5815 3.27678C11.7065 3.28571 11.7734 3.23661 11.7824 3.12946C11.8002 3.02232 11.769 2.93303 11.6886 2.86161C11.7958 2.87053 11.8092 2.79464 11.7288 2.63393C11.6842 2.57143 11.6484 2.53125 11.6217 2.51339C11.5145 2.47768 11.394 2.5 11.26 2.58036C11.1886 2.61607 11.1975 2.65178 11.2868 2.6875C11.2779 2.67857 11.2333 2.72768 11.1529 2.83482C11.0815 2.93304 11.01 3.00893 10.9386 3.0625C10.8672 3.11607 10.7958 3.09375 10.7243 2.99553C10.7154 2.98661 10.6886 2.92857 10.644 2.82143C10.6083 2.70536 10.5681 2.64286 10.5234 2.63393C10.452 2.63393 10.3806 2.70089 10.3092 2.83482C10.3359 2.76339 10.2868 2.69643 10.1618 2.63393C10.0368 2.57143 9.92969 2.53571 9.8404 2.52678C10.01 2.41964 9.97433 2.29911 9.73326 2.16518C9.67076 2.12946 9.57701 2.10714 9.45201 2.09821C9.33594 2.08929 9.25112 2.10714 9.19755 2.15178C9.1529 2.21428 9.12612 2.26786 9.11719 2.3125C9.11719 2.34821 9.13951 2.38393 9.18415 2.41964C9.23772 2.44643 9.28683 2.46875 9.33147 2.48661C9.37612 2.50446 9.42522 2.52232 9.4788 2.54018C9.5413 2.55803 9.58147 2.57143 9.59933 2.58036C9.72433 2.66964 9.76005 2.73214 9.70647 2.76786C9.68862 2.77678 9.64844 2.79464 9.58594 2.82143C9.53237 2.83928 9.48326 2.85714 9.43862 2.875C9.39397 2.89286 9.36719 2.91071 9.35826 2.92857C9.33147 2.96429 9.33147 3.02679 9.35826 3.11607C9.38505 3.20536 9.37612 3.26786 9.33147 3.30357C9.28683 3.25893 9.24665 3.18303 9.21094 3.07589C9.17522 2.95982 9.14397 2.88393 9.11719 2.84821C9.17969 2.92857 9.06808 2.95536 8.78237 2.92857L8.64844 2.91518C8.61272 2.91518 8.54129 2.92411 8.43415 2.94196C8.32701 2.95982 8.23326 2.96428 8.1529 2.95536C8.08147 2.94643 8.02344 2.91071 7.9788 2.84821C7.94308 2.77679 7.94308 2.6875 7.9788 2.58036C7.98772 2.54464 8.00558 2.53571 8.03237 2.55357C7.99665 2.52679 7.94755 2.48661 7.88505 2.43303C7.82255 2.37053 7.7779 2.33036 7.75112 2.3125C7.3404 2.44643 6.92076 2.62946 6.49219 2.86161C6.54576 2.87053 6.59933 2.86607 6.6529 2.84821C6.69754 2.83036 6.75558 2.80357 6.82701 2.76786C6.89844 2.72321 6.94308 2.69643 6.96094 2.6875C7.26451 2.5625 7.45201 2.53125 7.52344 2.59375L7.5904 2.52678C7.7154 2.66964 7.80469 2.78125 7.85826 2.86161C7.79576 2.82589 7.66183 2.82143 7.45647 2.84821C7.2779 2.90179 7.17969 2.95536 7.16183 3.00893C7.22433 3.11607 7.24665 3.19643 7.2288 3.25C7.19308 3.22321 7.13951 3.17857 7.06808 3.11607C7.00558 3.05357 6.94308 3.00446 6.88058 2.96875C6.81808 2.93303 6.75112 2.91071 6.67969 2.90178C6.53683 2.90178 6.43862 2.90625 6.38505 2.91518C5.08147 3.62946 4.03237 4.62053 3.23772 5.88839C3.30022 5.95089 3.35379 5.98661 3.39844 5.99553C3.43415 6.00446 3.45647 6.04464 3.4654 6.11607C3.47433 6.1875 3.48326 6.23661 3.49219 6.26339C3.51004 6.29018 3.56362 6.27679 3.6529 6.22321C3.73326 6.29464 3.74665 6.37946 3.69308 6.47768C3.70201 6.46875 3.89844 6.58928 4.28237 6.83928C4.45201 6.99107 4.54576 7.08482 4.56362 7.12053C4.5904 7.21875 4.54576 7.29911 4.42969 7.36161C4.42076 7.34375 4.38058 7.30357 4.30915 7.24107C4.23772 7.17857 4.19754 7.16071 4.18862 7.1875C4.16183 7.23214 4.16183 7.31696 4.18862 7.44196C4.22433 7.55804 4.27344 7.61161 4.33594 7.60268C4.27344 7.60268 4.22879 7.67411 4.20201 7.81696C4.18415 7.95982 4.17522 8.12054 4.17522 8.29911C4.17522 8.46875 4.17076 8.57143 4.16183 8.60714L4.18862 8.62053C4.16183 8.72768 4.18415 8.88393 4.25558 9.08929C4.33594 9.28571 4.43415 9.37054 4.55022 9.34375C4.43415 9.37054 4.52344 9.5625 4.81808 9.91964C4.87165 9.99107 4.90737 10.0312 4.92522 10.0402C4.95201 10.058 5.00558 10.0937 5.08594 10.1473C5.16629 10.192 5.23326 10.2366 5.28683 10.2812C5.3404 10.317 5.38504 10.3616 5.42076 10.4152C5.45647 10.4598 5.50112 10.5625 5.55469 10.7232C5.60826 10.875 5.67076 10.9777 5.74219 11.0312C5.72433 11.0848 5.76451 11.1741 5.86272 11.2991C5.96987 11.4241 6.01897 11.5268 6.01005 11.6071C6.00112 11.6071 5.98772 11.6116 5.96987 11.6205C5.96094 11.6295 5.95201 11.6339 5.94308 11.6339C5.96987 11.6964 6.03683 11.7589 6.14397 11.8214C6.26004 11.8839 6.33147 11.942 6.35826 11.9955C6.36719 12.0223 6.37612 12.067 6.38505 12.1295C6.39397 12.192 6.40737 12.2411 6.42522 12.2768C6.44308 12.3125 6.4788 12.3214 6.53237 12.3036C6.55022 12.125 6.44308 11.8482 6.21094 11.4732C6.07701 11.25 6.00112 11.1205 5.98326 11.0848C5.95647 11.0402 5.92969 10.9732 5.9029 10.8839C5.88504 10.7857 5.86719 10.7187 5.84933 10.683C5.86719 10.683 5.89397 10.692 5.92969 10.7098C5.9654 10.7187 6.00112 10.7321 6.03683 10.75C6.08147 10.7679 6.11719 10.7857 6.14397 10.8036C6.17076 10.8214 6.17969 10.8348 6.17076 10.8437C6.14397 10.9062 6.1529 10.9866 6.19755 11.0848C6.24219 11.1741 6.29576 11.2545 6.35826 11.3259C6.42076 11.3973 6.49665 11.4821 6.58594 11.5804C6.67522 11.6786 6.72879 11.7366 6.74665 11.7545C6.80022 11.808 6.86272 11.8973 6.93415 12.0223C7.00558 12.1384 7.00558 12.1964 6.93415 12.1964C7.01451 12.1964 7.10379 12.2411 7.20201 12.3304C7.30022 12.4196 7.37612 12.5089 7.42969 12.5982C7.47433 12.6696 7.51004 12.7857 7.53683 12.9464C7.56362 13.1071 7.58594 13.2143 7.6038 13.2679C7.62165 13.3304 7.65737 13.3929 7.71094 13.4554C7.77344 13.5089 7.83147 13.5491 7.88505 13.5759C7.93862 13.6027 8.01004 13.6384 8.09933 13.683C8.18862 13.7277 8.24665 13.7589 8.27344 13.7768C8.31808 13.7946 8.39844 13.8437 8.51451 13.9241C8.63951 13.9955 8.73772 14.0446 8.80915 14.0714C8.89844 14.1071 8.96987 14.125 9.02344 14.125C9.07701 14.125 9.13951 14.1161 9.21094 14.0982C9.2913 14.0714 9.3538 14.0536 9.39844 14.0446C9.53237 14.0268 9.66183 14.0937 9.78683 14.2455C9.91183 14.3973 10.0056 14.4911 10.0681 14.5268C10.3895 14.6964 10.635 14.7455 10.8047 14.6741C10.7868 14.683 10.7868 14.7187 10.8047 14.7812C10.8315 14.8348 10.8672 14.9018 10.9118 14.9821C10.9654 15.0625 11.0056 15.1295 11.0324 15.183C11.0681 15.2277 11.0949 15.2634 11.1127 15.2902C11.1574 15.3437 11.2377 15.4107 11.3538 15.4911C11.4699 15.5714 11.5502 15.6384 11.5949 15.692C11.6484 15.6562 11.6797 15.6161 11.6886 15.5714C11.6618 15.6429 11.6931 15.7321 11.7824 15.8393C11.8717 15.9464 11.952 15.9911 12.0234 15.9732C12.1484 15.9464 12.2109 15.8036 12.2109 15.5446C11.9342 15.6786 11.7154 15.5982 11.5547 15.3036C11.5547 15.2946 11.5413 15.2723 11.5145 15.2366C11.4967 15.192 11.4788 15.1518 11.4609 15.1161C11.452 15.0804 11.4431 15.0446 11.4342 15.0089C11.4252 14.9643 11.4252 14.9286 11.4342 14.9018C11.4431 14.875 11.4654 14.8616 11.5011 14.8616C11.5815 14.8616 11.6261 14.8482 11.635 14.8214C11.644 14.7857 11.635 14.7277 11.6083 14.6473C11.5815 14.567 11.5636 14.5089 11.5547 14.4732C11.5458 14.4018 11.4967 14.3125 11.4074 14.2054C11.3181 14.0982 11.2645 14.0312 11.2467 14.0045C11.202 14.0848 11.1306 14.1205 11.0324 14.1116C10.9342 14.1027 10.8627 14.0625 10.8181 13.9911C10.8181 14 10.8092 14.0268 10.7913 14.0714C10.7824 14.1071 10.7779 14.1339 10.7779 14.1518C10.6618 14.1518 10.5949 14.1473 10.577 14.1384C10.5859 14.1116 10.5949 14.0357 10.6038 13.9107C10.6217 13.7768 10.6395 13.6741 10.6574 13.6027C10.6663 13.567 10.6886 13.5134 10.7243 13.442C10.769 13.3705 10.8047 13.308 10.8315 13.2545C10.8583 13.192 10.8761 13.1339 10.885 13.0804C10.894 13.0268 10.8717 12.9866 10.8181 12.9598C10.7734 12.9241 10.6975 12.9107 10.5904 12.9196C10.4208 12.9286 10.3047 13.0179 10.2422 13.1875C10.2333 13.2143 10.2199 13.2634 10.202 13.3348C10.1842 13.3973 10.1618 13.4464 10.135 13.4821C10.1083 13.5179 10.0681 13.5491 10.0145 13.5759C9.95201 13.6027 9.84487 13.6116 9.69308 13.6027C9.54129 13.5937 9.43415 13.5714 9.37165 13.5357C9.25558 13.4643 9.1529 13.3348 9.06362 13.1473C8.98326 12.9598 8.94308 12.7946 8.94308 12.6518C8.94308 12.5625 8.95201 12.4464 8.96987 12.3036C8.99665 12.1518 9.01005 12.0402 9.01005 11.9688C9.01897 11.8884 8.99665 11.7768 8.94308 11.6339C8.96987 11.6161 9.01005 11.5759 9.06362 11.5134C9.11719 11.442 9.16183 11.3929 9.19755 11.3661C9.2154 11.3571 9.23326 11.3527 9.25112 11.3527C9.2779 11.3437 9.30022 11.3437 9.31808 11.3527C9.33594 11.3527 9.35379 11.3437 9.37165 11.3259C9.38951 11.308 9.4029 11.2812 9.41183 11.2455C9.4029 11.2366 9.38505 11.2232 9.35826 11.2054C9.33147 11.1786 9.31362 11.1652 9.30469 11.1652C9.36719 11.192 9.49219 11.1875 9.67969 11.1518C9.87612 11.1071 10.0011 11.1116 10.0547 11.1652C10.1886 11.2634 10.2868 11.2545 10.3493 11.1384C10.3493 11.1295 10.3359 11.0893 10.3092 11.0179C10.2913 10.9375 10.2913 10.875 10.3092 10.8304C10.3538 11.0714 10.4833 11.1116 10.6975 10.9509C10.7243 10.9777 10.7913 11 10.8984 11.0179C11.0145 11.0357 11.0949 11.058 11.1395 11.0848C11.1663 11.1027 11.1975 11.1295 11.2333 11.1652C11.269 11.192 11.2913 11.2098 11.3002 11.2188C11.3181 11.2277 11.3404 11.2277 11.3672 11.2188C11.4029 11.2009 11.4431 11.1696 11.4877 11.125C11.577 11.25 11.6306 11.3571 11.6484 11.4464C11.7467 11.8036 11.8315 12 11.9029 12.0357C11.9654 12.0625 12.0145 12.0714 12.0502 12.0625C12.0859 12.0536 12.1038 12.0134 12.1038 11.942C12.1127 11.8616 12.1127 11.7991 12.1038 11.7545C12.1038 11.7009 12.0993 11.6429 12.0904 11.5804L12.077 11.4732C12.077 11.3929 12.077 11.3125 12.077 11.2321L12.0636 11.125C11.9297 11.0982 11.8449 11.0446 11.8092 10.9643C11.7824 10.8839 11.7913 10.8036 11.8359 10.7232C11.8806 10.6339 11.9475 10.5491 12.0368 10.4687C12.0458 10.4598 12.0815 10.4464 12.144 10.4286C12.2065 10.4018 12.2734 10.3705 12.3449 10.3348C12.4252 10.2991 12.4833 10.2634 12.519 10.2277C12.7065 10.058 12.7734 9.90179 12.7199 9.75893C12.7824 9.75893 12.8315 9.71875 12.8672 9.63839C12.8583 9.63839 12.8359 9.625 12.8002 9.59821C12.7645 9.57143 12.7288 9.54911 12.6931 9.53125C12.6663 9.51339 12.6484 9.50446 12.6395 9.50446C12.7199 9.45982 12.7288 9.38839 12.6663 9.29018C12.7109 9.26339 12.7422 9.21429 12.76 9.14286C12.7868 9.07143 12.8225 9.02679 12.8672 9.00893C12.9475 9.11607 13.0413 9.125 13.1484 9.03571C13.2109 8.96429 13.2154 8.89286 13.1618 8.82143C13.2065 8.75893 13.2958 8.71429 13.4297 8.6875C13.5725 8.65179 13.6574 8.60714 13.6842 8.55357C13.7467 8.57143 13.7824 8.5625 13.7913 8.52678C13.8002 8.49107 13.8047 8.4375 13.8047 8.36607C13.8047 8.29464 13.8181 8.24107 13.8449 8.20536C13.8806 8.16071 13.9475 8.12054 14.0458 8.08482C14.144 8.04911 14.202 8.02679 14.2199 8.01786L14.4475 7.87053C14.4743 7.83482 14.4743 7.81696 14.4475 7.81696C14.6083 7.83482 14.7467 7.78571 14.8627 7.66964C14.952 7.57143 14.9252 7.48214 14.7824 7.40178C14.8092 7.34821 14.7958 7.30804 14.7422 7.28125C14.6886 7.24554 14.6217 7.21875 14.5413 7.20089C14.5681 7.19196 14.6172 7.19196 14.6886 7.20089C14.769 7.20089 14.8181 7.19196 14.8359 7.17411C14.9699 7.08482 14.9386 7.01339 14.7422 6.95982C14.5904 6.91518 14.3984 6.96875 14.1663 7.12053ZM11.9833 18.8661C13.8225 18.5446 15.3895 17.7009 16.6842 16.3348C16.6574 16.308 16.5993 16.2902 16.51 16.2812C16.4297 16.2634 16.3761 16.2455 16.3493 16.2277C16.1886 16.1652 16.0815 16.1295 16.0279 16.1205C16.0368 16.058 16.0234 16 15.9877 15.9464C15.9609 15.8929 15.9252 15.8527 15.8806 15.8259C15.8449 15.7991 15.7913 15.7634 15.7199 15.7188C15.6484 15.6741 15.5993 15.6429 15.5725 15.625C15.5547 15.6071 15.5234 15.5804 15.4788 15.5446C15.4342 15.5089 15.4029 15.4866 15.385 15.4777C15.3672 15.4598 15.3315 15.4375 15.2779 15.4107C15.2333 15.3839 15.1975 15.375 15.1708 15.3839C15.144 15.3929 15.0993 15.3973 15.0368 15.3973L14.9967 15.4107C14.9699 15.4196 14.9431 15.433 14.9163 15.4509C14.8984 15.4598 14.8761 15.4732 14.8493 15.4911C14.8225 15.5 14.8047 15.5134 14.7958 15.5312C14.7868 15.5402 14.7868 15.5491 14.7958 15.558C14.6083 15.4062 14.4475 15.308 14.3136 15.2634C14.269 15.2545 14.2199 15.2321 14.1663 15.1964C14.1127 15.1518 14.0636 15.1205 14.019 15.1027C13.9833 15.0759 13.9386 15.067 13.885 15.0759C13.8404 15.0848 13.7913 15.1161 13.7377 15.1696C13.6931 15.2143 13.6663 15.2812 13.6574 15.3705C13.6484 15.4598 13.6395 15.5179 13.6306 15.5446C13.5681 15.5 13.5681 15.4241 13.6306 15.317C13.6931 15.2009 13.702 15.1161 13.6574 15.0625C13.6306 15.0089 13.5815 14.9911 13.51 15.0089C13.4475 15.0179 13.394 15.0357 13.3493 15.0625C13.3136 15.0893 13.2645 15.1295 13.202 15.183C13.1395 15.2277 13.0993 15.2545 13.0815 15.2634C13.0636 15.2723 13.0234 15.2991 12.9609 15.3438C12.9074 15.3795 12.8717 15.4107 12.8538 15.4375C12.827 15.4732 12.8002 15.5268 12.7734 15.5982C12.7467 15.6696 12.7243 15.7187 12.7065 15.7455C12.6886 15.7098 12.635 15.683 12.5458 15.6652C12.4654 15.6384 12.4252 15.6116 12.4252 15.5848C12.4431 15.6741 12.4609 15.8304 12.4788 16.0536C12.4967 16.2768 12.519 16.4464 12.5458 16.5625C12.6083 16.8393 12.5547 17.0536 12.385 17.2054C12.144 17.4286 12.0145 17.6071 11.9967 17.7411C11.9609 17.9375 12.0145 18.0536 12.1574 18.0893C12.1574 18.1518 12.1217 18.2455 12.0502 18.3705C11.9788 18.4866 11.9475 18.5804 11.9565 18.6518C11.9565 18.7054 11.9654 18.7768 11.9833 18.8661Z" fill="white"/>
</svg>
