<svg width="21" height="17" viewBox="0 0 21 17" fill="none" xmlns="http://www.w3.org/2000/svg">
<path opacity="0.5" d="M20.2002 5.78125V14.6429C20.2002 15.1339 20.0253 15.5543 19.6756 15.904C19.3259 16.2537 18.9056 16.4286 18.4145 16.4286H1.98591C1.49484 16.4286 1.07445 16.2537 0.724749 15.904C0.375047 15.5543 0.200195 15.1339 0.200195 14.6429V5.78125C0.527576 6.14583 0.90332 6.46949 1.32743 6.75223C4.02088 8.58259 5.86984 9.86607 6.8743 10.6027C7.29841 10.9152 7.64067 11.1607 7.90109 11.3393C8.16895 11.5104 8.52237 11.689 8.96136 11.875C9.40034 12.0536 9.80957 12.1429 10.189 12.1429H10.2002H10.2114C10.5908 12.1429 11 12.0536 11.439 11.875C11.878 11.689 12.2277 11.5104 12.4881 11.3393C12.756 11.1607 13.102 10.9152 13.5261 10.6027C14.791 9.6875 16.6436 8.40402 19.0841 6.75223C19.5082 6.46205 19.8803 6.13839 20.2002 5.78125ZM20.2002 2.5C20.2002 3.0878 20.0179 3.64955 19.6533 4.18527C19.2887 4.72098 18.8349 5.17857 18.2917 5.55804C15.4941 7.5 13.753 8.70908 13.0685 9.18527C12.9941 9.23735 12.8341 9.35268 12.5886 9.53125C12.3505 9.70238 12.1496 9.84375 11.9859 9.95536C11.8297 10.0595 11.6362 10.1786 11.4056 10.3125C11.1823 10.4464 10.9703 10.5469 10.7694 10.6138C10.5685 10.6808 10.3825 10.7143 10.2114 10.7143H10.2002H10.189C10.0179 10.7143 9.83189 10.6808 9.631 10.6138C9.43011 10.5469 9.21433 10.4464 8.98368 10.3125C8.76046 10.1786 8.56701 10.0595 8.40332 9.95536C8.24707 9.84375 8.04618 9.70238 7.80064 9.53125C7.56255 9.35268 7.4063 9.23735 7.33189 9.18527C6.65481 8.70908 5.68011 8.03199 4.40778 7.15402C3.13546 6.2686 2.37281 5.73661 2.11984 5.55804C1.65853 5.24554 1.22326 4.81771 0.814035 4.27455C0.404808 3.72396 0.200195 3.21429 0.200195 2.74554C0.200195 2.16518 0.352725 1.68155 0.657785 1.29464C0.970285 0.907738 1.41299 0.714285 1.98591 0.714285H18.4145C18.8981 0.714285 19.3148 0.889136 19.6645 1.23884C20.0216 1.58854 20.2002 2.00893 20.2002 2.5Z" fill="#5D5D5D"/>
</svg>
