<?xml version="1.0" encoding="UTF-8"?>
<svg xmlns="http://www.w3.org/2000/svg" xmlns:xlink="http://www.w3.org/1999/xlink" width="152pt" height="38pt" viewBox="0 0 152 38" version="1.1">
<g id="surface1">
<path style=" stroke:none;fill-rule:nonzero;fill:rgb(83.137255%,0%,11.764706%);fill-opacity:1;" d="M 36.71875 12.691406 L 42.242188 12.691406 C 42.871094 12.691406 43.5 12.761719 44.109375 12.878906 C 44.738281 13.019531 45.273438 13.230469 45.761719 13.558594 C 46.253906 13.886719 46.648438 14.308594 46.953125 14.847656 C 47.253906 15.386719 47.394531 16.066406 47.394531 16.890625 C 47.394531 17.6875 47.183594 18.367188 46.8125 18.976562 C 46.4375 19.585938 45.878906 20.03125 45.15625 20.382812 L 48.398438 25.589844 L 43.457031 25.589844 L 41.03125 20.945312 L 40.890625 20.945312 L 40.890625 25.542969 L 36.71875 25.542969 Z M 40.867188 18.132812 L 41.707031 18.132812 C 41.847656 18.132812 42.011719 18.109375 42.171875 18.109375 C 42.335938 18.109375 42.5 18.039062 42.664062 17.96875 C 42.824219 17.898438 42.917969 17.78125 43.035156 17.640625 C 43.128906 17.5 43.175781 17.3125 43.175781 17.078125 C 43.175781 16.84375 43.128906 16.679688 43.035156 16.535156 C 42.941406 16.394531 42.847656 16.300781 42.710938 16.230469 C 42.570312 16.160156 42.453125 16.136719 42.265625 16.089844 C 42.125 16.066406 41.964844 16.066406 41.824219 16.066406 L 40.796875 16.066406 Z M 40.867188 18.132812 "/>
<path style=" stroke:none;fill-rule:nonzero;fill:rgb(83.137255%,0%,11.764706%);fill-opacity:1;" d="M 47.882812 19.046875 C 47.882812 18.015625 48.070312 17.078125 48.421875 16.253906 C 48.769531 15.433594 49.285156 14.730469 49.914062 14.144531 C 50.542969 13.558594 51.3125 13.113281 52.175781 12.808594 C 53.035156 12.480469 53.96875 12.339844 54.996094 12.339844 C 56.019531 12.339844 56.953125 12.480469 57.816406 12.808594 C 58.679688 13.136719 59.449219 13.558594 60.078125 14.144531 C 60.707031 14.730469 61.21875 15.433594 61.59375 16.253906 C 61.964844 17.078125 62.128906 18.015625 62.128906 19.046875 C 62.128906 20.078125 61.941406 21.015625 61.59375 21.863281 C 61.21875 22.707031 60.730469 23.433594 60.078125 24.042969 C 59.449219 24.652344 58.679688 25.097656 57.816406 25.449219 C 56.953125 25.777344 56.019531 25.941406 54.996094 25.941406 C 53.96875 25.941406 53.035156 25.777344 52.175781 25.449219 C 51.3125 25.121094 50.542969 24.652344 49.914062 24.042969 C 49.285156 23.433594 48.769531 22.707031 48.421875 21.863281 C 48.070312 21.015625 47.882812 20.078125 47.882812 19.046875 Z M 52.453125 19.046875 C 52.453125 19.46875 52.523438 19.84375 52.640625 20.195312 C 52.78125 20.546875 52.945312 20.851562 53.152344 21.109375 C 53.363281 21.367188 53.644531 21.558594 53.945312 21.699219 C 54.273438 21.839844 54.597656 21.910156 54.972656 21.910156 C 55.34375 21.910156 55.671875 21.839844 55.972656 21.699219 C 56.277344 21.558594 56.535156 21.367188 56.765625 21.109375 C 57 20.851562 57.164062 20.546875 57.304688 20.195312 C 57.441406 19.84375 57.488281 19.445312 57.488281 19.046875 C 57.488281 18.648438 57.417969 18.25 57.304688 17.898438 C 57.164062 17.546875 57 17.265625 56.765625 17.03125 C 56.535156 16.796875 56.253906 16.605469 55.972656 16.464844 C 55.695312 16.324219 55.34375 16.253906 54.972656 16.253906 C 54.597656 16.253906 54.273438 16.324219 53.945312 16.464844 C 53.621094 16.605469 53.363281 16.796875 53.152344 17.03125 C 52.945312 17.265625 52.757812 17.546875 52.640625 17.898438 C 52.523438 18.25 52.453125 18.625 52.453125 19.046875 Z M 52.453125 19.046875 "/>
<path style=" stroke:none;fill-rule:nonzero;fill:rgb(83.137255%,0%,11.764706%);fill-opacity:1;" d="M 62.59375 19.117188 C 62.59375 18.085938 62.78125 17.148438 63.132812 16.324219 C 63.503906 15.480469 63.992188 14.777344 64.625 14.167969 C 65.253906 13.582031 66 13.113281 66.839844 12.785156 C 67.699219 12.457031 68.585938 12.292969 69.566406 12.292969 C 70.542969 12.292969 71.476562 12.457031 72.363281 12.785156 C 73.25 13.113281 73.996094 13.535156 74.578125 14.074219 L 71.945312 17.265625 C 71.710938 16.9375 71.40625 16.703125 71.035156 16.535156 C 70.660156 16.371094 70.265625 16.277344 69.820312 16.277344 C 69.449219 16.277344 69.121094 16.347656 68.796875 16.464844 C 68.46875 16.605469 68.214844 16.796875 67.980469 17.03125 C 67.746094 17.265625 67.5625 17.570312 67.421875 17.898438 C 67.28125 18.25 67.210938 18.625 67.210938 19.046875 C 67.210938 19.46875 67.28125 19.84375 67.421875 20.195312 C 67.5625 20.523438 67.746094 20.828125 67.980469 21.0625 C 68.214844 21.296875 68.492188 21.488281 68.796875 21.628906 C 69.121094 21.769531 69.449219 21.816406 69.777344 21.816406 C 70.289062 21.816406 70.683594 21.722656 71.035156 21.511719 C 71.382812 21.296875 71.664062 21.0625 71.875 20.78125 L 74.507812 23.972656 C 73.925781 24.558594 73.226562 25.003906 72.363281 25.378906 C 71.523438 25.730469 70.566406 25.894531 69.496094 25.894531 C 68.515625 25.894531 67.628906 25.730469 66.769531 25.402344 C 65.90625 25.074219 65.183594 24.605469 64.554688 23.996094 C 63.925781 23.386719 63.433594 22.683594 63.0625 21.839844 C 62.757812 21.0625 62.59375 20.148438 62.59375 19.117188 Z M 62.59375 19.117188 "/>
<path style=" stroke:none;fill-rule:nonzero;fill:rgb(83.137255%,0%,11.764706%);fill-opacity:1;" d="M 79.265625 20.429688 L 79.242188 20.429688 L 79.242188 25.566406 L 75.066406 25.566406 L 75.066406 12.691406 L 79.242188 12.691406 L 79.242188 17.429688 L 79.265625 17.429688 L 82.667969 12.691406 L 87.726562 12.691406 L 82.902344 18.578125 L 87.960938 25.566406 L 82.667969 25.566406 Z M 79.265625 20.429688 "/>
<path style=" stroke:none;fill-rule:nonzero;fill:rgb(83.137255%,0%,11.764706%);fill-opacity:1;" d="M 95.417969 25.566406 L 91.082031 25.566406 L 87.585938 12.691406 L 92.132812 12.691406 L 93.507812 19.914062 L 93.578125 19.914062 L 95.070312 12.691406 L 99.570312 12.691406 L 101.179688 19.9375 L 101.246094 19.9375 L 102.648438 12.714844 L 107.054688 12.714844 L 103.484375 25.566406 L 99.148438 25.566406 L 97.355469 18.296875 L 97.285156 18.296875 Z M 95.417969 25.566406 "/>
<path style=" stroke:none;fill-rule:nonzero;fill:rgb(83.137255%,0%,11.764706%);fill-opacity:1;" d="M 106.375 19.046875 C 106.375 18.015625 106.5625 17.078125 106.914062 16.253906 C 107.285156 15.433594 107.777344 14.730469 108.40625 14.144531 C 109.035156 13.558594 109.804688 13.113281 110.667969 12.808594 C 111.527344 12.480469 112.460938 12.339844 113.488281 12.339844 C 114.511719 12.339844 115.445312 12.480469 116.308594 12.808594 C 117.171875 13.136719 117.941406 13.558594 118.570312 14.144531 C 119.199219 14.730469 119.710938 15.433594 120.085938 16.253906 C 120.457031 17.078125 120.621094 18.015625 120.621094 19.046875 C 120.621094 20.078125 120.433594 21.015625 120.085938 21.863281 C 119.710938 22.707031 119.222656 23.433594 118.570312 24.042969 C 117.917969 24.652344 117.171875 25.097656 116.308594 25.449219 C 115.445312 25.777344 114.511719 25.941406 113.488281 25.941406 C 112.460938 25.941406 111.527344 25.777344 110.667969 25.449219 C 109.804688 25.121094 109.035156 24.652344 108.40625 24.042969 C 107.777344 23.433594 107.261719 22.707031 106.914062 21.863281 C 106.5625 21.015625 106.375 20.078125 106.375 19.046875 Z M 110.945312 19.046875 C 110.945312 19.46875 111.015625 19.84375 111.132812 20.195312 C 111.273438 20.546875 111.4375 20.851562 111.644531 21.109375 C 111.855469 21.367188 112.136719 21.558594 112.4375 21.699219 C 112.765625 21.839844 113.089844 21.910156 113.464844 21.910156 C 113.835938 21.910156 114.164062 21.839844 114.464844 21.699219 C 114.769531 21.558594 115.027344 21.367188 115.257812 21.109375 C 115.492188 20.851562 115.65625 20.546875 115.796875 20.195312 C 115.933594 19.84375 115.980469 19.445312 115.980469 19.046875 C 115.980469 18.648438 115.910156 18.25 115.796875 17.898438 C 115.65625 17.546875 115.492188 17.265625 115.257812 17.03125 C 115.027344 16.796875 114.746094 16.605469 114.464844 16.464844 C 114.1875 16.324219 113.835938 16.253906 113.464844 16.253906 C 113.089844 16.253906 112.765625 16.324219 112.4375 16.464844 C 112.113281 16.605469 111.855469 16.796875 111.644531 17.03125 C 111.4375 17.265625 111.25 17.546875 111.132812 17.898438 C 111.015625 18.273438 110.945312 18.625 110.945312 19.046875 Z M 110.945312 19.046875 "/>
<path style=" stroke:none;fill-rule:nonzero;fill:rgb(83.137255%,0%,11.764706%);fill-opacity:1;" d="M 121.085938 19.046875 C 121.085938 18.015625 121.273438 17.078125 121.625 16.253906 C 121.972656 15.433594 122.484375 14.730469 123.117188 14.144531 C 123.746094 13.558594 124.515625 13.113281 125.375 12.808594 C 126.238281 12.480469 127.171875 12.339844 128.199219 12.339844 C 129.222656 12.339844 130.15625 12.480469 131.019531 12.808594 C 131.882812 13.136719 132.648438 13.558594 133.28125 14.144531 C 133.910156 14.730469 134.421875 15.433594 134.796875 16.253906 C 135.167969 17.078125 135.332031 18.015625 135.332031 19.046875 C 135.332031 20.078125 135.144531 21.015625 134.796875 21.863281 C 134.421875 22.707031 133.933594 23.433594 133.28125 24.042969 C 132.648438 24.652344 131.882812 25.097656 131.019531 25.449219 C 130.15625 25.777344 129.222656 25.941406 128.199219 25.941406 C 127.171875 25.941406 126.238281 25.777344 125.375 25.449219 C 124.515625 25.121094 123.746094 24.652344 123.117188 24.042969 C 122.484375 23.433594 121.972656 22.707031 121.625 21.863281 C 121.273438 21.015625 121.085938 20.078125 121.085938 19.046875 Z M 125.65625 19.046875 C 125.65625 19.46875 125.726562 19.84375 125.84375 20.195312 C 125.984375 20.546875 126.144531 20.851562 126.355469 21.109375 C 126.566406 21.367188 126.84375 21.558594 127.148438 21.699219 C 127.476562 21.839844 127.800781 21.910156 128.175781 21.910156 C 128.546875 21.910156 128.875 21.839844 129.175781 21.699219 C 129.480469 21.558594 129.734375 21.367188 129.96875 21.109375 C 130.203125 20.851562 130.367188 20.546875 130.503906 20.195312 C 130.644531 19.84375 130.691406 19.445312 130.691406 19.046875 C 130.691406 18.648438 130.621094 18.25 130.503906 17.898438 C 130.367188 17.546875 130.203125 17.265625 129.96875 17.03125 C 129.734375 16.796875 129.457031 16.605469 129.175781 16.464844 C 128.898438 16.324219 128.546875 16.253906 128.175781 16.253906 C 127.800781 16.253906 127.476562 16.324219 127.148438 16.464844 C 126.820312 16.605469 126.566406 16.796875 126.355469 17.03125 C 126.144531 17.265625 125.960938 17.546875 125.84375 17.898438 C 125.703125 18.273438 125.65625 18.625 125.65625 19.046875 Z M 125.65625 19.046875 "/>
<path style=" stroke:none;fill-rule:nonzero;fill:rgb(83.137255%,0%,11.764706%);fill-opacity:1;" d="M 136.054688 12.691406 L 140.390625 12.691406 L 140.390625 21.839844 L 144.632812 21.839844 L 144.632812 25.566406 L 136.054688 25.566406 Z M 136.054688 12.691406 "/>
<path style=" stroke:none;fill-rule:nonzero;fill:rgb(83.137255%,0%,11.764706%);fill-opacity:1;" d="M 4.753906 6.261719 L 4.753906 32.019531 L 30.351562 32.019531 L 30.351562 6.261719 Z M 16.574219 20.734375 L 13.707031 25.566406 L 7.296875 25.566406 L 14.945312 12.691406 L 16.550781 12.691406 Z M 21.378906 25.566406 L 18.511719 20.734375 L 18.511719 12.691406 L 20.117188 12.691406 L 27.765625 25.566406 Z M 21.378906 25.566406 "/>
</g>
</svg>
