<svg width="19" height="18" viewBox="0 0 19 18" fill="none" xmlns="http://www.w3.org/2000/svg">
<path opacity="0.5" d="M4.68562 16H14.6856V13.1429H4.68562V16ZM4.68562 8.85714H14.6856V4.57143H12.8999C12.6023 4.57143 12.3493 4.46726 12.141 4.25893C11.9326 4.05059 11.8285 3.79762 11.8285 3.5V1.71429H4.68562V8.85714ZM17.3307 10.0737C17.4721 9.93229 17.5428 9.76488 17.5428 9.57143C17.5428 9.37798 17.4721 9.21057 17.3307 9.0692C17.1893 8.92783 17.0219 8.85714 16.8285 8.85714C16.635 8.85714 16.4676 8.92783 16.3262 9.0692C16.1849 9.21057 16.1142 9.37798 16.1142 9.57143C16.1142 9.76488 16.1849 9.93229 16.3262 10.0737C16.4676 10.215 16.635 10.2857 16.8285 10.2857C17.0219 10.2857 17.1893 10.215 17.3307 10.0737ZM18.9713 9.57143V14.2143C18.9713 14.311 18.9341 14.3966 18.8597 14.471C18.7928 14.5379 18.7109 14.5714 18.6142 14.5714H16.1142V16.3571C16.1142 16.6548 16.01 16.9077 15.8017 17.1161C15.5934 17.3244 15.3404 17.4286 15.0428 17.4286H4.32847C4.03085 17.4286 3.77788 17.3244 3.56955 17.1161C3.36121 16.9077 3.25705 16.6548 3.25705 16.3571V14.5714H0.757045C0.660319 14.5714 0.574754 14.5379 0.500349 14.471C0.433384 14.3966 0.399902 14.311 0.399902 14.2143V9.57143C0.399902 8.98363 0.608236 8.4814 1.0249 8.06473C1.44901 7.64062 1.95496 7.42857 2.54276 7.42857H3.25705V1.35714C3.25705 1.05952 3.36121 0.806547 3.56955 0.598213C3.77788 0.38988 4.03085 0.285713 4.32847 0.285713H11.8285C12.1261 0.285713 12.4535 0.360118 12.8106 0.508928C13.1678 0.657738 13.4505 0.836309 13.6588 1.04464L15.3553 2.74107C15.5636 2.9494 15.7422 3.23214 15.891 3.58929C16.0398 3.94643 16.1142 4.27381 16.1142 4.57143V7.42857H16.8285C17.4163 7.42857 17.9185 7.64062 18.3352 8.06473C18.7593 8.4814 18.9713 8.98363 18.9713 9.57143Z" fill="#5D5D5D"/>
</svg>
