<?xml version="1.0" encoding="utf-8"?>
<!-- Generator: Adobe Illustrator 19.2.1, SVG Export Plug-In . SVG Version: 6.00 Build 0)  -->
<svg version="1.1" id="layer" xmlns="http://www.w3.org/2000/svg" xmlns:xlink="http://www.w3.org/1999/xlink" x="0px" y="0px"
	 viewBox="0 240 652 162" style="enable-background:new 0 0 652 652;" xml:space="preserve">
<style type="text/css">
	.st0{fill:#FFFFFF;}
</style>
<g>
	<path class="st0" d="M157.5,294.1h23.7c2.7,0,5.4,0.3,8,0.8c2.7,0.6,5,1.5,7.1,2.9c2.1,1.4,3.8,3.2,5.1,5.5s1.9,5.2,1.9,8.7
		c0,3.4-0.9,6.3-2.5,8.9s-4,4.5-7.1,6l13.9,22.2h-21.2L176,329.3h-0.6v19.6h-17.9L157.5,294.1L157.5,294.1z M175.3,317.3h3.6
		c0.6,0,1.3-0.1,2-0.1s1.4-0.3,2.1-0.6s1.1-0.8,1.6-1.4c0.4-0.6,0.6-1.4,0.6-2.4s-0.2-1.7-0.6-2.3c-0.4-0.6-0.8-1-1.4-1.3
		c-0.6-0.3-1.1-0.4-1.9-0.6c-0.6-0.1-1.3-0.1-1.9-0.1h-4.4L175.3,317.3L175.3,317.3z"/>
	<path class="st0" d="M205.4,321.2c0-4.4,0.8-8.4,2.3-11.9c1.5-3.5,3.7-6.5,6.4-9c2.7-2.5,6-4.4,9.7-5.7c3.7-1.4,7.7-2,12.1-2
		c4.4,0,8.4,0.6,12.1,2c3.7,1.4,7,3.2,9.7,5.7c2.7,2.5,4.9,5.5,6.5,9c1.6,3.5,2.3,7.5,2.3,11.9s-0.8,8.4-2.3,12
		c-1.6,3.6-3.7,6.7-6.5,9.3c-2.7,2.6-6,4.5-9.7,6c-3.7,1.4-7.7,2.1-12.1,2.1c-4.4,0-8.4-0.7-12.1-2.1c-3.7-1.4-7-3.4-9.7-6
		c-2.7-2.6-4.9-5.7-6.4-9.3C206.2,329.6,205.4,325.6,205.4,321.2z M225,321.2c0,1.8,0.3,3.4,0.8,4.9c0.6,1.5,1.3,2.8,2.2,3.9
		c0.9,1.1,2.1,1.9,3.4,2.5c1.4,0.6,2.8,0.9,4.4,0.9c1.6,0,3-0.3,4.3-0.9c1.3-0.6,2.4-1.4,3.4-2.5c1-1.1,1.7-2.4,2.3-3.9
		s0.8-3.2,0.8-4.9c0-1.7-0.3-3.4-0.8-4.9c-0.6-1.5-1.3-2.7-2.3-3.7c-1-1-2.2-1.8-3.4-2.4s-2.7-0.9-4.3-0.9c-1.6,0-3,0.3-4.4,0.9
		c-1.4,0.6-2.5,1.4-3.4,2.4c-0.9,1-1.7,2.2-2.2,3.7S225,319.4,225,321.2z"/>
	<path class="st0" d="M268.5,321.5c0-4.4,0.8-8.4,2.3-11.9c1.6-3.6,3.7-6.6,6.4-9.2c2.7-2.5,5.9-4.5,9.5-5.9
		c3.7-1.4,7.5-2.1,11.7-2.1c4.2,0,8.2,0.7,12,2.1c3.8,1.4,7,3.2,9.5,5.5l-11.3,13.6c-1-1.4-2.3-2.4-3.9-3.1
		c-1.6-0.7-3.3-1.1-5.2-1.1c-1.6,0-3,0.3-4.4,0.8c-1.4,0.6-2.5,1.4-3.5,2.4c-1,1-1.8,2.3-2.4,3.7c-0.6,1.5-0.9,3.1-0.9,4.9
		c0,1.8,0.3,3.4,0.9,4.9c0.6,1.4,1.4,2.7,2.4,3.7c1,1,2.2,1.8,3.5,2.4c1.4,0.6,2.8,0.8,4.2,0.8c2.2,0,3.9-0.4,5.4-1.3
		s2.7-1.9,3.6-3.1l11.3,13.6c-2.5,2.5-5.5,4.4-9.2,6c-3.6,1.5-7.7,2.2-12.3,2.2c-4.2,0-8-0.7-11.7-2.1c-3.7-1.4-6.8-3.4-9.5-6
		s-4.8-5.6-6.4-9.2C269.2,329.8,268.5,325.9,268.5,321.5z"/>
	<path class="st0" d="M340,327.1h-0.1V349H322v-54.9h17.9v20.2h0.1l14.6-20.2h21.7l-20.7,25.1l21.7,29.8h-22.7L340,327.1z"/>
	<path class="st0" d="M409.3,349h-18.6l-15-54.9h19.5l5.9,30.8h0.3l6.4-30.8h19.3L434,325h0.3l6-30.8h18.9L443.9,349h-18.6l-7.7-31
		h-0.3L409.3,349z"/>
	<path class="st0" d="M456.3,321.2c0-4.4,0.8-8.4,2.3-11.9c1.6-3.5,3.7-6.5,6.4-9c2.7-2.5,6-4.4,9.7-5.7c3.7-1.4,7.7-2,12.1-2
		c4.4,0,8.4,0.6,12.1,2c3.7,1.4,7,3.2,9.7,5.7c2.7,2.5,4.9,5.5,6.5,9c1.6,3.5,2.3,7.5,2.3,11.9s-0.8,8.4-2.3,12
		c-1.6,3.6-3.7,6.7-6.5,9.3s-6,4.5-9.7,6c-3.7,1.4-7.7,2.1-12.1,2.1c-4.4,0-8.4-0.7-12.1-2.1s-7-3.4-9.7-6s-4.9-5.7-6.4-9.3
		C457.1,329.6,456.3,325.6,456.3,321.2z M475.9,321.2c0,1.8,0.3,3.4,0.8,4.9c0.6,1.5,1.3,2.8,2.2,3.9s2.1,1.9,3.4,2.5
		c1.4,0.6,2.8,0.9,4.4,0.9c1.6,0,3-0.3,4.3-0.9c1.3-0.6,2.4-1.4,3.4-2.5c1-1.1,1.7-2.4,2.3-3.9s0.8-3.2,0.8-4.9
		c0-1.7-0.3-3.4-0.8-4.9c-0.6-1.5-1.3-2.7-2.3-3.7c-1-1-2.2-1.8-3.4-2.4s-2.7-0.9-4.3-0.9s-3,0.3-4.4,0.9s-2.5,1.4-3.4,2.4
		c-0.9,1-1.7,2.2-2.2,3.7C476.2,317.9,475.9,319.4,475.9,321.2z"/>
	<path class="st0" d="M519.4,321.2c0-4.4,0.8-8.4,2.3-11.9c1.5-3.5,3.7-6.5,6.4-9c2.7-2.5,6-4.4,9.7-5.7c3.7-1.4,7.7-2,12.1-2
		s8.4,0.6,12.1,2c3.7,1.4,7,3.2,9.7,5.7c2.7,2.5,4.9,5.5,6.5,9c1.6,3.5,2.3,7.5,2.3,11.9s-0.8,8.4-2.3,12c-1.6,3.6-3.7,6.7-6.5,9.3
		c-2.7,2.6-6,4.5-9.7,6c-3.7,1.4-7.7,2.1-12.1,2.1c-4.4,0-8.4-0.7-12.1-2.1s-7-3.4-9.7-6s-4.9-5.7-6.4-9.3
		C520.2,329.6,519.4,325.6,519.4,321.2z M539,321.2c0,1.8,0.3,3.4,0.8,4.9c0.6,1.5,1.3,2.8,2.2,3.9c0.9,1.1,2.1,1.9,3.4,2.5
		c1.4,0.6,2.8,0.9,4.4,0.9c1.6,0,3-0.3,4.3-0.9c1.3-0.6,2.4-1.4,3.4-2.5c1-1.1,1.7-2.4,2.3-3.9s0.8-3.2,0.8-4.9
		c0-1.7-0.3-3.4-0.8-4.9c-0.6-1.5-1.3-2.7-2.3-3.7c-1-1-2.2-1.8-3.4-2.4s-2.7-0.9-4.3-0.9s-3,0.3-4.4,0.9s-2.5,1.4-3.4,2.4
		c-0.9,1-1.7,2.2-2.2,3.7C539.2,317.9,539,319.4,539,321.2z"/>
	<path class="st0" d="M583.6,294.1h18.6v39h18.2v15.9h-36.8L583.6,294.1L583.6,294.1z"/>
	<path class="st0" d="M20.4,266.7v109.8h109.8V266.7H20.4z M71.1,328.4L58.8,349H31.3l32.8-54.9H71L71.1,328.4L71.1,328.4z
		 M91.7,349l-12.3-20.6v-34.3h6.9l32.8,54.9H91.7z"/>
</g>

</svg>
