<svg width="18" height="18" viewBox="0 0 18 18" fill="none" xmlns="http://www.w3.org/2000/svg">
<path d="M4.38581 16H12.9572V11.7143H4.38581V16ZM14.3858 16H15.8144V6C15.8144 5.89583 15.7772 5.75446 15.7028 5.57589C15.6284 5.38988 15.554 5.25967 15.4796 5.18527L12.3434 2.04911C12.269 1.9747 12.1425 1.9003 11.9639 1.82589C11.7854 1.75149 11.6403 1.71429 11.5287 1.71429V6.35714C11.5287 6.65476 11.4245 6.90774 11.2162 7.11607C11.0078 7.3244 10.7549 7.42857 10.4572 7.42857H4.02867C3.73105 7.42857 3.47807 7.3244 3.26974 7.11607C3.06141 6.90774 2.95724 6.65476 2.95724 6.35714V1.71429H1.52867V16H2.95724V11.3571C2.95724 11.0595 3.06141 10.8065 3.26974 10.5982C3.47807 10.3899 3.73105 10.2857 4.02867 10.2857H13.3144C13.612 10.2857 13.865 10.3899 14.0733 10.5982C14.2816 10.8065 14.3858 11.0595 14.3858 11.3571V16ZM10.1001 5.64286V2.07143C10.1001 1.9747 10.0629 1.89286 9.98849 1.82589C9.92153 1.75149 9.83968 1.71429 9.74295 1.71429H7.6001C7.50337 1.71429 7.41781 1.75149 7.3434 1.82589C7.27644 1.89286 7.24295 1.9747 7.24295 2.07143V5.64286C7.24295 5.73958 7.27644 5.82515 7.3434 5.89955C7.41781 5.96652 7.50337 6 7.6001 6H9.74295C9.83968 6 9.92153 5.96652 9.98849 5.89955C10.0629 5.82515 10.1001 5.73958 10.1001 5.64286ZM17.243 6V16.3571C17.243 16.6548 17.1388 16.9077 16.9305 17.1161C16.7221 17.3244 16.4691 17.4286 16.1715 17.4286H1.17153C0.873907 17.4286 0.620931 17.3244 0.412598 17.1161C0.204264 16.9077 0.100098 16.6548 0.100098 16.3571V1.35714C0.100098 1.05952 0.204264 0.806547 0.412598 0.598213C0.620931 0.38988 0.873907 0.285713 1.17153 0.285713H11.5287C11.8263 0.285713 12.1537 0.360118 12.5108 0.508928C12.868 0.657738 13.1507 0.836309 13.359 1.04464L16.484 4.16964C16.6924 4.37798 16.8709 4.66071 17.0197 5.01786C17.1686 5.375 17.243 5.70238 17.243 6Z" fill="#909090"/>
</svg>
